<svg width="36" height="36" viewBox="0 0 36 36" fill="none" xmlns="http://www.w3.org/2000/svg">
<g clip-path="url(#clip0_15_43199)">
<path d="M35.3912 17.7817C35.3912 20.1895 35.3428 22.6042 35.4051 25.012C35.5089 29.274 32.8312 32.5675 29.4202 34.0343C28.0503 34.6224 26.6111 34.9337 25.1236 34.9337C20.4671 34.9406 15.8038 35.0029 11.1474 34.913C7.63946 34.8438 4.75427 33.377 2.68551 30.4849C1.59924 28.9627 1.08032 27.233 1.08032 25.3579C1.08032 20.3971 1.08032 15.4431 1.08032 10.4823C1.08032 6.4347 3.05221 3.60486 6.55319 1.76443C8.07535 0.968752 9.72897 0.629725 11.4518 0.622806C15.9698 0.622806 20.4948 0.595131 25.0129 0.636644C28.5208 0.66432 31.4475 2.00659 33.6062 4.82951C34.8101 6.40702 35.3912 8.21978 35.3912 10.2124C35.3912 12.7309 35.3912 15.2563 35.3912 17.7817ZM3.6334 17.7817C3.6334 20.321 3.6334 22.8533 3.6334 25.3925C3.6334 26.5272 3.89632 27.5928 4.48443 28.5545C6.02735 31.0799 8.35903 32.3115 11.2511 32.3599C15.8937 32.4291 20.5432 32.3876 25.1928 32.3737C26.3344 32.3737 27.4414 32.1385 28.4723 31.6472C31.2814 30.305 32.852 28.167 32.8382 24.9566C32.8105 20.0442 32.8312 15.1318 32.8312 10.2193C32.8312 8.82864 32.4369 7.55556 31.6135 6.4347C30.0222 4.28291 27.8219 3.22432 25.1928 3.19664C20.5571 3.14129 15.9214 3.17589 11.2857 3.18281C10.2963 3.18281 9.34151 3.38346 8.41438 3.7294C5.86821 4.67729 3.50194 7.07816 3.61265 10.6137C3.69567 13.0077 3.6334 15.3947 3.6334 17.7817Z" fill="white"/>
<path d="M18.2739 25.1157C13.8112 25.1157 10.2133 21.5594 10.2064 17.1312C10.1995 12.7723 13.825 9.20216 18.2601 9.20216C22.7089 9.19524 26.3206 12.7585 26.3275 17.152C26.3275 21.5386 22.7228 25.1088 18.2739 25.1157ZM18.2739 22.5557C21.3113 22.5557 23.7744 20.1271 23.7675 17.1382C23.7606 14.1769 21.2975 11.7552 18.2739 11.7552C15.2365 11.7552 12.7595 14.1699 12.7595 17.152C12.7664 20.141 15.2365 22.5626 18.2739 22.5557Z" fill="white"/>
<path d="M27.2615 6.78076C28.1956 6.78076 28.9566 7.57644 28.9566 8.55201C28.9497 9.52757 28.1817 10.3163 27.2477 10.3094C26.3275 10.3025 25.5733 9.51373 25.5733 8.55892C25.5664 7.58336 26.3275 6.78076 27.2615 6.78076Z" fill="white"/>
</g>
<defs>
<clipPath id="clip0_15_43199">
<rect width="35.4249" height="35.4249" fill="white" transform="translate(0.450684)"/>
</clipPath>
</defs>
</svg>
