<svg width="35" height="36" viewBox="0 0 35 36" fill="none" xmlns="http://www.w3.org/2000/svg">
<g clip-path="url(#clip0_15_43205)">
<path d="M34.8158 26.0401C34.7737 25.9494 34.7344 25.8742 34.698 25.8139C34.095 24.7279 32.9426 23.3948 31.2416 21.8143L31.2057 21.7782L31.1877 21.7604L31.1695 21.7422H31.1512C30.3792 21.0063 29.8903 20.5114 29.6856 20.2581C29.311 19.7755 29.2271 19.287 29.4318 18.7921C29.5765 18.4181 30.1198 17.6284 31.0605 16.4217C31.5553 15.7823 31.9472 15.2698 32.2366 14.8836C34.3239 12.1087 35.2288 10.3355 34.9512 9.56333L34.8434 9.38288C34.7709 9.27424 34.584 9.17486 34.2827 9.08422C33.9808 8.99377 33.5948 8.97882 33.1242 9.03909L27.9126 9.07509C27.8282 9.04518 27.7076 9.04797 27.5506 9.08422C27.3937 9.12048 27.3152 9.13867 27.3152 9.13867L27.2245 9.18399L27.1525 9.23843C27.0922 9.27443 27.0258 9.33775 26.9534 9.42826C26.8813 9.51846 26.821 9.62431 26.7729 9.74492C26.2055 11.2047 25.5603 12.5619 24.8363 13.8165C24.3899 14.5646 23.98 15.213 23.6056 15.7619C23.2317 16.3107 22.918 16.715 22.6648 16.9742C22.4113 17.2336 22.1825 17.4414 21.977 17.5984C21.7718 17.7555 21.6152 17.8219 21.5068 17.7976C21.3981 17.7733 21.2957 17.7492 21.1988 17.7251C21.03 17.6165 20.8942 17.4688 20.7919 17.2818C20.6891 17.0948 20.6198 16.8595 20.5836 16.5759C20.5476 16.2922 20.5264 16.0482 20.5203 15.843C20.5146 15.6381 20.5172 15.3483 20.5295 14.9743C20.542 14.6002 20.5476 14.347 20.5476 14.2143C20.5476 13.7558 20.5566 13.2582 20.5745 12.7213C20.5928 12.1845 20.6075 11.7591 20.6199 11.4457C20.6322 11.1321 20.6379 10.8002 20.6379 10.4503C20.6379 10.1004 20.6166 9.82605 20.5745 9.6269C20.5329 9.42801 20.4691 9.23495 20.385 9.04778C20.3004 8.8608 20.1765 8.71616 20.014 8.61348C19.8512 8.51092 19.6488 8.42954 19.4078 8.36907C18.7684 8.22437 17.9541 8.14609 16.9646 8.13392C14.7208 8.10984 13.279 8.25473 12.6396 8.56841C12.3863 8.70095 12.157 8.88203 11.9521 9.1111C11.7348 9.37661 11.7045 9.5215 11.8613 9.54533C12.5853 9.65378 13.0978 9.91321 13.3995 10.3234L13.5082 10.5407C13.5927 10.6975 13.6771 10.9751 13.7616 11.3732C13.846 11.7712 13.9004 12.2115 13.9244 12.6939C13.9846 13.5747 13.9846 14.3287 13.9244 14.9559C13.864 15.5834 13.8069 16.0719 13.7525 16.4218C13.6981 16.7717 13.6167 17.0552 13.5082 17.2723C13.3995 17.4894 13.3271 17.6221 13.2909 17.6703C13.2547 17.7185 13.2245 17.7488 13.2006 17.7608C13.0438 17.8208 12.8807 17.8515 12.7119 17.8515C12.5428 17.8515 12.3379 17.7669 12.0966 17.5979C11.8555 17.429 11.6052 17.1968 11.3457 16.9012C11.0863 16.6055 10.7937 16.1924 10.4679 15.6616C10.1423 15.1308 9.80445 14.5035 9.45458 13.7797L9.16511 13.2547C8.98415 12.917 8.73696 12.4253 8.42327 11.78C8.1094 11.1345 7.83198 10.51 7.5908 9.9068C7.4944 9.65346 7.34957 9.46059 7.15657 9.32787L7.06599 9.27342C7.00578 9.22525 6.90912 9.1741 6.77653 9.11959C6.64374 9.06514 6.50518 9.0261 6.36029 9.00208L1.40191 9.03808C0.895232 9.03808 0.551444 9.15286 0.370423 9.38212L0.297976 9.49057C0.261785 9.55097 0.24353 9.64744 0.24353 9.78023C0.24353 9.91295 0.279722 10.0758 0.352168 10.2687C1.076 11.9699 1.86315 13.6106 2.71362 15.191C3.56409 16.7714 4.30314 18.0444 4.93031 19.009C5.55761 19.9742 6.19702 20.8852 6.84853 21.7415C7.50004 22.5981 7.9313 23.1471 8.1423 23.3883C8.35355 23.6299 8.51949 23.8105 8.64011 23.9311L9.0926 24.3654C9.38213 24.655 9.8073 25.0018 10.3683 25.4059C10.9294 25.8102 11.5506 26.2082 12.2323 26.6006C12.914 26.9924 13.7071 27.3121 14.612 27.5594C15.5168 27.8069 16.3975 27.9062 17.2541 27.8583H19.3352C19.7573 27.8218 20.077 27.6891 20.2944 27.46L20.3664 27.3693C20.4148 27.2973 20.4601 27.1855 20.5019 27.0349C20.5443 26.8841 20.5653 26.718 20.5653 26.5373C20.553 26.0187 20.5925 25.5512 20.6827 25.135C20.7729 24.719 20.8757 24.4053 20.9907 24.1941C21.1056 23.983 21.2353 23.8049 21.3796 23.6605C21.5243 23.5158 21.6273 23.4281 21.6878 23.398C21.7479 23.3676 21.7958 23.347 21.832 23.3346C22.1216 23.2382 22.4623 23.3316 22.8548 23.6154C23.2469 23.8989 23.6147 24.2489 23.9588 24.665C24.3026 25.0814 24.7158 25.5486 25.1982 26.0673C25.681 26.5861 26.1032 26.9718 26.4649 27.2255L26.8267 27.4427C27.0683 27.5876 27.382 27.7203 27.7682 27.8409C28.1536 27.9615 28.4913 27.9916 28.7813 27.9314L33.4137 27.8591C33.8719 27.8591 34.2285 27.7832 34.4813 27.6327C34.7348 27.4819 34.8853 27.3158 34.9338 27.1351C34.9823 26.9542 34.9849 26.749 34.943 26.5195C34.9001 26.2906 34.8578 26.1306 34.8158 26.0401Z" fill="white"/>
</g>
<defs>
<clipPath id="clip0_15_43205">
<rect width="34.7565" height="34.7565" fill="white" transform="translate(0.24353 0.667969)"/>
</clipPath>
</defs>
</svg>
