<svg width="33" height="33" viewBox="0 0 33 33" fill="none" xmlns="http://www.w3.org/2000/svg">
<g clip-path="url(#clip0_15_43208)">
<path d="M17.1923 32.7309C16.6775 32.7309 16.2837 32.3068 16.2837 31.8223C16.2837 31.5497 16.2837 25.5832 16.2837 20.5254C16.2837 20.0105 16.6775 19.6168 17.1923 19.6168H19.5547L19.7667 17.4361H17.1923C16.6775 17.4361 16.2837 17.0424 16.2837 16.5275V14.1652C16.2837 12.8023 17.2832 12.1663 18.1918 12.1663H19.8273V10.0765H17.2529C13.7699 10.0765 13.4065 12.772 13.4065 13.9229V16.5275C13.4065 17.0424 13.0128 17.4361 12.4979 17.4361H10.4081V19.6168H12.4979C13.0128 19.6168 13.4065 20.0105 13.4065 20.5254V31.4588C13.4065 31.9737 13.0128 32.3674 12.4979 32.3674C11.983 32.3674 11.5893 31.9737 11.5893 31.4588V21.434H9.49954C8.98467 21.434 8.59094 21.0402 8.59094 20.5254V16.4972C8.59094 15.9824 8.98467 15.5886 9.49954 15.5886H11.5893V13.8926C11.5893 11.288 13.0734 8.229 17.2529 8.229H20.7359C21.2507 8.229 21.6445 8.62273 21.6445 9.1376V13.0749C21.6445 13.5897 21.2507 13.9835 20.7359 13.9835H18.1918C18.1615 13.9835 18.1312 13.9835 18.1312 13.9835C18.1312 14.0137 18.1009 14.0743 18.1009 14.1652V15.6189H20.7964C21.0387 15.6189 21.3113 15.7401 21.4627 15.9218C21.6445 16.1035 21.705 16.3761 21.705 16.6184L21.281 20.6162C21.2205 21.0705 20.857 21.434 20.3724 21.434H18.1009C18.1009 23.766 18.1009 26.189 18.1009 28.1273V31.58C18.1009 31.6405 18.1009 31.7011 18.1009 31.7617C18.1009 31.792 18.1009 31.8223 18.1009 31.8525C18.0101 32.5794 17.5558 32.7309 17.1923 32.7309Z" fill="white"/>
<path d="M17.1923 32.7312C16.7077 32.7312 16.314 32.3678 16.2837 31.8832C16.2534 31.3683 16.6168 30.9443 17.1317 30.914C24.5216 30.3688 30.2761 24.1298 30.2761 16.7096C30.2761 8.86537 23.8856 2.4749 16.0414 2.4749C8.19717 2.4749 1.8067 8.86537 1.8067 16.7096C1.8067 23.3121 6.28911 29.006 12.6796 30.5506C13.1642 30.6717 13.467 31.1563 13.3459 31.6409C13.2247 32.1255 12.7402 32.4283 12.2556 32.3072C5.04736 30.5809 -0.010498 24.1601 -0.010498 16.7399C-0.010498 7.8962 7.19771 0.687988 16.0414 0.687988C24.8851 0.687988 32.0933 7.8962 32.0933 16.7399C32.0933 25.099 25.5817 32.1255 17.2529 32.7312C17.2226 32.7312 17.2226 32.7312 17.1923 32.7312Z" fill="white"/>
</g>
<defs>
<clipPath id="clip0_15_43208">
<rect width="32.0829" height="32.0829" fill="white" transform="translate(0 0.667969)"/>
</clipPath>
</defs>
</svg>
