<svg width="240" height="51" viewBox="0 0 240 51" fill="none" xmlns="http://www.w3.org/2000/svg">
<path d="M159.832 24.096C158.728 24.096 157.728 23.84 156.832 23.328C155.952 22.816 155.248 22.08 154.72 21.12C154.208 20.16 153.952 19.032 153.952 17.736C153.952 16.408 154.208 15.272 154.72 14.328C155.248 13.384 155.952 12.656 156.832 12.144C157.728 11.632 158.728 11.376 159.832 11.376C161.016 11.376 162.072 11.648 163 12.192C163.944 12.72 164.68 13.464 165.208 14.424C165.752 15.368 166.024 16.472 166.024 17.736C166.024 18.984 165.752 20.088 165.208 21.048C164.68 22.008 163.944 22.76 163 23.304C162.072 23.832 161.016 24.096 159.832 24.096ZM153.544 24V6.192H154.744V15.528L154.504 17.712L154.696 19.896V24H153.544ZM159.76 23.016C160.72 23.016 161.584 22.8 162.352 22.368C163.12 21.92 163.72 21.296 164.152 20.496C164.6 19.696 164.824 18.776 164.824 17.736C164.824 16.68 164.6 15.76 164.152 14.976C163.72 14.176 163.12 13.56 162.352 13.128C161.584 12.68 160.72 12.456 159.76 12.456C158.8 12.456 157.936 12.68 157.168 13.128C156.416 13.56 155.816 14.176 155.368 14.976C154.936 15.76 154.72 16.68 154.72 17.736C154.72 18.776 154.936 19.696 155.368 20.496C155.816 21.296 156.416 21.92 157.168 22.368C157.936 22.8 158.8 23.016 159.76 23.016ZM176.027 24.096C174.763 24.096 173.643 23.824 172.667 23.28C171.707 22.736 170.947 21.984 170.387 21.024C169.843 20.064 169.571 18.968 169.571 17.736C169.571 16.488 169.827 15.392 170.339 14.448C170.867 13.488 171.587 12.736 172.499 12.192C173.411 11.648 174.435 11.376 175.571 11.376C176.707 11.376 177.723 11.64 178.619 12.168C179.531 12.696 180.243 13.44 180.755 14.4C181.283 15.344 181.547 16.44 181.547 17.688C181.547 17.736 181.539 17.792 181.523 17.856C181.523 17.904 181.523 17.96 181.523 18.024H170.459V17.088H180.875L180.395 17.544C180.411 16.568 180.203 15.696 179.771 14.928C179.355 14.144 178.787 13.536 178.067 13.104C177.347 12.656 176.515 12.432 175.571 12.432C174.643 12.432 173.811 12.656 173.075 13.104C172.355 13.536 171.787 14.144 171.371 14.928C170.955 15.696 170.747 16.576 170.747 17.568V17.784C170.747 18.808 170.971 19.72 171.419 20.52C171.883 21.304 172.515 21.92 173.315 22.368C174.115 22.8 175.027 23.016 176.051 23.016C176.851 23.016 177.595 22.872 178.283 22.584C178.987 22.296 179.579 21.856 180.059 21.264L180.755 22.056C180.211 22.728 179.523 23.24 178.691 23.592C177.875 23.928 176.987 24.096 176.027 24.096ZM194.004 24V21.144L193.956 20.712V16.008C193.956 14.84 193.636 13.952 192.996 13.344C192.372 12.736 191.452 12.432 190.236 12.432C189.372 12.432 188.564 12.584 187.812 12.888C187.076 13.176 186.444 13.552 185.916 14.016L185.316 13.152C185.94 12.592 186.692 12.16 187.572 11.856C188.452 11.536 189.372 11.376 190.332 11.376C191.884 11.376 193.076 11.768 193.908 12.552C194.74 13.336 195.156 14.504 195.156 16.056V24H194.004ZM189.492 24.096C188.564 24.096 187.756 23.952 187.068 23.664C186.396 23.36 185.876 22.936 185.508 22.392C185.156 21.848 184.98 21.224 184.98 20.52C184.98 19.88 185.124 19.304 185.412 18.792C185.716 18.264 186.212 17.84 186.9 17.52C187.588 17.184 188.508 17.016 189.66 17.016H194.268V17.952H189.684C188.388 17.952 187.476 18.192 186.948 18.672C186.436 19.152 186.18 19.752 186.18 20.472C186.18 21.272 186.484 21.912 187.092 22.392C187.7 22.872 188.556 23.112 189.66 23.112C190.716 23.112 191.604 22.872 192.324 22.392C193.06 21.912 193.604 21.216 193.956 20.304L194.292 21.12C193.956 22.032 193.38 22.76 192.564 23.304C191.764 23.832 190.74 24.096 189.492 24.096ZM206.388 24.096C205.316 24.096 204.388 23.904 203.604 23.52C202.82 23.12 202.212 22.528 201.78 21.744C201.364 20.944 201.156 19.96 201.156 18.792V11.472H202.356V18.696C202.356 20.104 202.716 21.176 203.436 21.912C204.156 22.648 205.172 23.016 206.484 23.016C207.428 23.016 208.244 22.816 208.932 22.416C209.62 22.016 210.148 21.456 210.516 20.736C210.884 20 211.068 19.136 211.068 18.144V11.472H212.268V24H211.116V20.52L211.284 20.928C210.916 21.904 210.3 22.68 209.436 23.256C208.588 23.816 207.572 24.096 206.388 24.096ZM222.203 24.096C221.099 24.096 220.251 23.792 219.659 23.184C219.083 22.576 218.795 21.744 218.795 20.688V8.736H219.995V20.568C219.995 21.368 220.195 21.984 220.595 22.416C220.995 22.848 221.571 23.064 222.323 23.064C223.107 23.064 223.755 22.832 224.267 22.368L224.771 23.208C224.451 23.512 224.059 23.736 223.595 23.88C223.147 24.024 222.683 24.096 222.203 24.096ZM216.491 12.504V11.472H223.979V12.504H216.491ZM228.795 28.752C228.219 28.752 227.675 28.656 227.163 28.464C226.667 28.272 226.243 27.992 225.891 27.624L226.491 26.712C226.811 27.048 227.155 27.296 227.523 27.456C227.907 27.616 228.339 27.696 228.819 27.696C229.395 27.696 229.899 27.536 230.331 27.216C230.779 26.896 231.195 26.312 231.579 25.464L232.443 23.544L232.611 23.328L237.915 11.472H239.139L232.707 25.704C232.371 26.472 232.003 27.072 231.603 27.504C231.219 27.952 230.795 28.272 230.331 28.464C229.867 28.656 229.355 28.752 228.795 28.752ZM232.419 24.312L226.611 11.472H227.883L233.163 23.256L232.419 24.312ZM156.712 46.096C155.672 46.096 154.696 45.944 153.784 45.64C152.888 45.336 152.192 44.952 151.696 44.488L152.248 43.528C152.728 43.944 153.368 44.304 154.168 44.608C154.968 44.896 155.832 45.04 156.76 45.04C158.072 45.04 159.016 44.824 159.592 44.392C160.168 43.96 160.456 43.392 160.456 42.688C160.456 42.176 160.304 41.776 160 41.488C159.712 41.184 159.32 40.952 158.824 40.792C158.328 40.632 157.784 40.504 157.192 40.408C156.6 40.296 156.008 40.176 155.416 40.048C154.824 39.92 154.28 39.736 153.784 39.496C153.288 39.256 152.888 38.928 152.584 38.512C152.296 38.08 152.152 37.512 152.152 36.808C152.152 36.168 152.328 35.592 152.68 35.08C153.032 34.568 153.56 34.16 154.264 33.856C154.968 33.536 155.848 33.376 156.904 33.376C157.688 33.376 158.472 33.488 159.256 33.712C160.056 33.936 160.704 34.232 161.2 34.6L160.648 35.56C160.12 35.16 159.528 34.872 158.872 34.696C158.216 34.52 157.552 34.432 156.88 34.432C155.664 34.432 154.768 34.656 154.192 35.104C153.632 35.552 153.352 36.112 153.352 36.784C153.352 37.312 153.496 37.736 153.784 38.056C154.088 38.36 154.488 38.6 154.984 38.776C155.48 38.936 156.024 39.072 156.616 39.184C157.208 39.28 157.8 39.392 158.392 39.52C158.984 39.648 159.528 39.832 160.024 40.072C160.52 40.296 160.912 40.616 161.2 41.032C161.504 41.432 161.656 41.976 161.656 42.664C161.656 43.352 161.464 43.952 161.08 44.464C160.712 44.976 160.16 45.376 159.424 45.664C158.688 45.952 157.784 46.096 156.712 46.096ZM169.853 46.096C168.749 46.096 167.901 45.792 167.309 45.184C166.733 44.576 166.445 43.744 166.445 42.688V30.736H167.645V42.568C167.645 43.368 167.845 43.984 168.245 44.416C168.645 44.848 169.221 45.064 169.973 45.064C170.757 45.064 171.405 44.832 171.917 44.368L172.421 45.208C172.101 45.512 171.709 45.736 171.245 45.88C170.797 46.024 170.333 46.096 169.853 46.096ZM164.141 34.504V33.472H171.629V34.504H164.141ZM182.055 46.096C180.983 46.096 180.055 45.904 179.271 45.52C178.487 45.12 177.879 44.528 177.447 43.744C177.031 42.944 176.823 41.96 176.823 40.792V33.472H178.023V40.696C178.023 42.104 178.383 43.176 179.103 43.912C179.823 44.648 180.839 45.016 182.151 45.016C183.095 45.016 183.911 44.816 184.599 44.416C185.287 44.016 185.815 43.456 186.183 42.736C186.551 42 186.735 41.136 186.735 40.144V33.472H187.935V46H186.783V42.52L186.951 42.928C186.583 43.904 185.967 44.68 185.103 45.256C184.255 45.816 183.239 46.096 182.055 46.096ZM199.046 46.096C197.878 46.096 196.822 45.832 195.878 45.304C194.95 44.76 194.214 44.008 193.67 43.048C193.126 42.088 192.854 40.984 192.854 39.736C192.854 38.472 193.126 37.368 193.67 36.424C194.214 35.464 194.95 34.72 195.878 34.192C196.822 33.648 197.878 33.376 199.046 33.376C200.15 33.376 201.142 33.632 202.022 34.144C202.918 34.656 203.622 35.384 204.134 36.328C204.662 37.272 204.926 38.408 204.926 39.736C204.926 41.032 204.67 42.16 204.158 43.12C203.646 44.08 202.942 44.816 202.046 45.328C201.166 45.84 200.166 46.096 199.046 46.096ZM199.118 45.016C200.078 45.016 200.934 44.8 201.686 44.368C202.454 43.92 203.054 43.296 203.486 42.496C203.934 41.696 204.158 40.776 204.158 39.736C204.158 38.68 203.934 37.76 203.486 36.976C203.054 36.176 202.454 35.56 201.686 35.128C200.934 34.68 200.078 34.456 199.118 34.456C198.158 34.456 197.294 34.68 196.526 35.128C195.774 35.56 195.174 36.176 194.726 36.976C194.294 37.76 194.078 38.68 194.078 39.736C194.078 40.776 194.294 41.696 194.726 42.496C195.174 43.296 195.774 43.92 196.526 44.368C197.294 44.8 198.158 45.016 199.118 45.016ZM204.182 46V41.896L204.398 39.712L204.158 37.528V28.192H205.358V46H204.182ZM211.617 46V33.472H212.817V46H211.617ZM212.217 30.424C211.945 30.424 211.713 30.328 211.521 30.136C211.329 29.944 211.233 29.72 211.233 29.464C211.233 29.192 211.329 28.96 211.521 28.768C211.713 28.576 211.945 28.48 212.217 28.48C212.505 28.48 212.737 28.576 212.913 28.768C213.105 28.944 213.201 29.168 213.201 29.44C213.201 29.712 213.105 29.944 212.913 30.136C212.737 30.328 212.505 30.424 212.217 30.424ZM223.971 46.096C222.771 46.096 221.699 45.824 220.755 45.28C219.827 44.736 219.083 43.984 218.523 43.024C217.979 42.064 217.707 40.968 217.707 39.736C217.707 38.488 217.979 37.392 218.523 36.448C219.083 35.488 219.827 34.736 220.755 34.192C221.699 33.648 222.771 33.376 223.971 33.376C225.171 33.376 226.243 33.648 227.187 34.192C228.131 34.736 228.875 35.488 229.419 36.448C229.963 37.392 230.235 38.488 230.235 39.736C230.235 40.968 229.963 42.064 229.419 43.024C228.875 43.984 228.131 44.736 227.187 45.28C226.243 45.824 225.171 46.096 223.971 46.096ZM223.971 45.016C224.931 45.016 225.795 44.8 226.563 44.368C227.331 43.92 227.931 43.296 228.363 42.496C228.795 41.696 229.011 40.776 229.011 39.736C229.011 38.68 228.795 37.76 228.363 36.976C227.931 36.176 227.331 35.56 226.563 35.128C225.795 34.68 224.931 34.456 223.971 34.456C223.011 34.456 222.147 34.68 221.379 35.128C220.627 35.56 220.027 36.176 219.579 36.976C219.147 37.76 218.931 38.68 218.931 39.736C218.931 40.776 219.147 41.696 219.579 42.496C220.027 43.296 220.627 43.92 221.379 44.368C222.147 44.8 223.011 45.016 223.971 45.016Z" fill="white"/>
<path d="M6.816 28.904H17.984V32.424H6.816V28.904ZM7.168 41H3.008V18.6H19.36V22.088H7.168V41ZM35.229 41.32C33.4797 41.32 31.869 41.032 30.397 40.456C28.925 39.88 27.645 39.08 26.557 38.056C25.469 37.0107 24.6263 35.7947 24.029 34.408C23.4317 33 23.133 31.464 23.133 29.8C23.133 28.136 23.4317 26.6107 24.029 25.224C24.6263 23.816 25.469 22.6 26.557 21.576C27.645 20.5307 28.925 19.72 30.397 19.144C31.869 18.568 33.469 18.28 35.197 18.28C36.9463 18.28 38.5463 18.568 39.997 19.144C41.469 19.72 42.749 20.5307 43.837 21.576C44.925 22.6 45.7677 23.816 46.365 25.224C46.9623 26.6107 47.261 28.136 47.261 29.8C47.261 31.464 46.9623 33 46.365 34.408C45.7677 35.816 44.925 37.032 43.837 38.056C42.749 39.08 41.469 39.88 39.997 40.456C38.5463 41.032 36.957 41.32 35.229 41.32ZM35.197 37.672C36.3277 37.672 37.373 37.48 38.333 37.096C39.293 36.712 40.125 36.168 40.829 35.464C41.533 34.7387 42.077 33.9067 42.461 32.968C42.8663 32.008 43.069 30.952 43.069 29.8C43.069 28.648 42.8663 27.6027 42.461 26.664C42.077 25.704 41.533 24.872 40.829 24.168C40.125 23.4427 39.293 22.888 38.333 22.504C37.373 22.12 36.3277 21.928 35.197 21.928C34.0663 21.928 33.021 22.12 32.061 22.504C31.1223 22.888 30.2903 23.4427 29.565 24.168C28.861 24.872 28.3063 25.704 27.901 26.664C27.517 27.6027 27.325 28.648 27.325 29.8C27.325 30.9307 27.517 31.976 27.901 32.936C28.3063 33.896 28.861 34.7387 29.565 35.464C30.269 36.168 31.101 36.712 32.061 37.096C33.021 37.48 34.0663 37.672 35.197 37.672ZM49.738 41L59.178 28.008V31.144L50.186 18.6H54.89L61.578 27.88L59.658 27.912L66.282 18.6H70.794L61.866 30.92V27.912L71.37 41H66.57L59.53 31.144H61.418L54.474 41H49.738ZM80.7808 41V32.136L81.7088 34.696L71.9808 18.6H76.4288L84.2368 31.56H81.7408L89.6128 18.6H93.7088L83.9808 34.696L84.9408 32.136V41H80.7808Z" fill="#D26300"/>
<g clip-path="url(#clip0_101_2)">
<mask id="mask0_101_2" style="mask-type:luminance" maskUnits="userSpaceOnUse" x="104" y="-1" width="44" height="35">
<path d="M131.81 12.9838C131.462 12.1439 129.212 10.7753 129.212 10.7753C131.151 9.74743 134.991 10.9029 136.926 11.8794C134.408 11.8794 131.81 12.9834 131.81 12.9834M147.883 12.7031C138.648 13.6188 135.427 6.67917 126.882 7.54005C126.882 7.54005 126.615 2.75041 123.453 -0.0180054C123.453 -0.0180054 121.292 14.7225 113.113 22.7496L115.176 17.5554C115.176 17.5554 110.322 20.6586 107.676 26.7309C108.753 15.0189 117.478 9.95195 120.4 7.54005C120.4 7.54005 103.149 11.148 105.078 33.418C105.078 33.418 111.078 26.5129 120.4 28.1303C123.644 28.2939 125.167 20.5831 128.516 19.4213C128.516 19.4213 126.909 18.8381 124.739 19.359C124.739 19.359 130.739 12.3297 144.936 15.7511L142.606 18.4572C142.606 18.4572 148.901 15.8757 147.883 12.7031H147.883Z" fill="white"/>
</mask>
<g mask="url(#mask0_101_2)">
<path d="M148.901 -0.0177155H103.15V33.4179H148.901V-0.0177155Z" fill="url(#paint0_linear_101_2)"/>
</g>
<mask id="mask1_101_2" style="mask-type:luminance" maskUnits="userSpaceOnUse" x="127" y="0" width="5" height="7">
<path d="M131.455 6.90321C131.455 6.90321 131.509 2.89076 128.803 0.558044C128.711 3.35047 128.194 5.22122 127.678 6.6544C128.375 6.52981 130.357 6.56096 131.455 6.90321Z" fill="white"/>
</mask>
<g mask="url(#mask1_101_2)">
<path d="M131.509 0.558044H127.678V6.90321H131.509V0.558044Z" fill="url(#paint1_linear_101_2)"/>
</g>
<mask id="mask2_101_2" style="mask-type:luminance" maskUnits="userSpaceOnUse" x="97" y="19" width="47" height="32">
<path d="M112.694 31.6853C107.847 33.1432 100.349 37.2765 97.0087 48.993C97.0087 48.993 105.098 42.0879 113.402 47.6867C113.402 47.6867 125.51 55.1828 134.403 47.5625C134.403 47.5625 148.76 37.1741 141.581 19.8806C141.581 19.8806 134.135 22.121 129.849 28.7762C129.849 28.7762 135.742 27.7809 138.313 22.6179C138.313 22.6179 139.01 24.4218 137.269 27.0968C137.269 27.0968 140.236 25.4869 140.563 22.8044C140.563 22.8044 143.67 32.6952 135.206 42.9593C135.206 42.9593 130.17 48.4958 121.545 46.2561C121.545 46.2561 114.045 42.6276 109.116 43.7058C109.116 43.7058 114.687 38.7292 124.224 40.4709C124.224 40.4709 119.349 36.4277 108.902 37.734C108.902 37.734 113.965 33.6904 120.3 33.7527C123.311 34.1404 127.45 33.9144 129.795 31.4819C129.795 31.4819 125.67 31.8549 120.912 31.4158C117.208 31.074 116.631 30.5013 112.693 31.6857" fill="white"/>
</mask>
<g mask="url(#mask2_101_2)">
<path d="M148.76 19.8801H97.0087V55.1823H148.76V19.8801Z" fill="url(#paint2_linear_101_2)"/>
</g>
</g>
<defs>
<linearGradient id="paint0_linear_101_2" x1="152.644" y1="5.49321" x2="96.6749" y2="22.9706" gradientUnits="userSpaceOnUse">
<stop offset="0.390625" stop-color="#D26300"/>
<stop offset="1" stop-color="white"/>
</linearGradient>
<linearGradient id="paint1_linear_101_2" x1="129.627" y1="7.49915" x2="129.535" y2="-0.149438" gradientUnits="userSpaceOnUse">
<stop stop-color="#D26300"/>
<stop offset="1" stop-color="white"/>
</linearGradient>
<linearGradient id="paint2_linear_101_2" x1="92.7833" y1="44.9178" x2="152.868" y2="33.9821" gradientUnits="userSpaceOnUse">
<stop stop-color="#D26300"/>
<stop offset="1" stop-color="white"/>
</linearGradient>
<clipPath id="clip0_101_2">
<rect width="51" height="51" fill="white" transform="translate(97)"/>
</clipPath>
</defs>
</svg>
