<svg width="319" height="277" viewBox="0 0 319 277" fill="none" xmlns="http://www.w3.org/2000/svg">
<path d="M304.337 90.627C304.337 90.627 304.438 90.7667 304.493 90.8896C304.337 90.627 304.226 90.3814 304.098 90.1803C303.998 90.0406 303.914 89.8563 303.814 89.7166C303.759 89.5937 303.658 89.4541 303.603 89.3312C303.447 89.0687 303.291 88.8062 303.091 88.5268C301.872 86.4879 300.67 84.4043 299.372 82.4378C298.103 80.5327 296.616 78.8003 294.955 77.2574C294.838 77.1623 294.738 77.0226 294.621 76.9275C293.88 76.1897 293.183 75.4688 292.52 74.6585C292.192 74.1781 291.847 73.7421 291.535 73.217C291.351 72.8931 291.184 72.5246 291.001 72.2006C290.639 71.402 290.384 70.5923 290.145 69.7381C289.896 68.7778 289.707 67.7898 289.564 66.8185C289.321 64.8928 289.079 62.9671 288.898 61.0136C288.827 60.1206 288.694 59.2554 288.578 58.3456C288.429 57.525 288.201 56.7768 287.929 56.0118C287.674 55.2022 287.251 54.4314 286.856 53.722C286.505 53.0295 286.093 52.3647 285.637 51.6832C284.724 50.32 283.671 49.057 282.618 47.7941C281.593 46.5926 280.596 45.4525 279.588 44.2064C279.415 43.9884 279.287 43.7874 279.098 43.6141C278.09 42.368 277.16 41.0494 276.152 39.8033C275.16 38.5126 274.135 37.3111 273.066 36.0928C272.041 34.8913 270.921 33.8068 269.739 32.7501C268.558 31.6935 267.281 30.7539 265.876 30.0205C265.151 29.6455 264.41 29.3149 263.668 28.9845C262.954 28.7154 262.195 28.4297 261.448 28.2499C259.986 27.8011 258.491 27.4414 257.007 27.1879C254.999 26.8386 252.895 26.6064 250.963 27.4069C249.522 27.9849 248.22 28.8701 246.963 29.7721C245.689 30.7187 244.415 31.6654 243.214 32.6903C242.029 33.6705 240.917 34.729 239.805 35.7875C238.676 36.8906 237.591 38.0105 236.507 39.1305C235.484 40.2226 234.488 41.3762 233.449 42.5129C232.694 43.2986 231.912 44.0227 231.084 44.7301C229.28 46.1391 227.391 47.3637 225.475 48.527C224.626 49.0223 223.794 49.4729 222.945 49.9682C222.112 50.4189 221.28 50.8695 220.52 51.3984C219.202 52.3283 218 53.3532 216.944 54.5345C215.932 55.7327 215.171 57.0765 214.454 58.437C213.799 59.7697 213.172 61.1638 212.561 62.5133C211.934 63.9074 211.262 65.2848 210.529 66.6899C210.445 66.913 210.316 67.1192 210.187 67.3254C209.991 67.7102 209.751 68.0781 209.555 68.4628C208.732 69.8343 207.954 71.2226 207.249 72.6892C206.526 74.2003 205.893 75.7452 205.305 77.3068C204.195 80.2516 203.158 83.2745 202.02 86.1578C201.953 86.3363 201.903 86.4702 201.835 86.6487C201.802 86.7379 201.768 86.8271 201.684 87.0502C201.65 87.1394 201.617 87.2287 201.583 87.3179C201.331 87.9872 201.034 88.6396 200.71 89.2306C200.446 89.7938 200.139 90.3402 199.814 90.9312C199.54 91.3884 199.327 91.8178 199.008 92.2582C198.706 92.6539 198.449 93.0664 198.13 93.5067C197.828 93.9025 197.543 94.2536 197.196 94.6325C196.866 94.9668 196.475 95.3289 196.101 95.6464C195.9 95.7745 195.743 95.9192 195.542 96.0473C195.358 96.1307 195.174 96.2141 194.945 96.2807C194.979 95.7841 195.058 95.3042 195.075 94.8522C195.358 92.2075 195.58 89.5906 195.864 86.9459C196.124 84.4964 196.234 82.0411 196.511 79.547C196.59 79.0672 196.625 78.5707 196.72 78.0462L196.754 77.9569C196.771 77.9123 196.788 77.8677 196.793 77.7171C196.827 77.6278 196.861 77.5386 196.833 77.4772C196.833 77.4772 196.867 77.3878 196.883 77.3432C197.07 76.0377 197.15 74.7432 197.23 73.4486C197.293 72.1987 197.312 70.9319 197.286 69.6483C197.26 68.3648 197.218 67.1257 197.131 65.87C197.043 64.6142 197.001 63.3753 196.896 62.1641C196.82 61.0144 196.699 59.8478 196.684 58.6703C196.681 57.5988 196.738 56.4996 196.779 55.4449C196.809 54.2842 196.821 53.168 196.701 52.0014C196.607 50.8963 196.47 49.7745 196.209 48.7082C195.937 47.5358 195.649 46.408 195.299 45.3081C195.26 45.1406 195.222 44.973 195.166 44.8502C195.166 44.8502 195.177 44.9563 195.205 45.0178C195.149 44.8949 195.11 44.7274 195.099 44.6214C195.122 44.4261 195.083 44.2585 195.106 44.0632C195.09 43.2931 195.092 42.4784 195.015 41.7361C194.883 40.0561 194.752 38.3761 194.454 36.7349C194.321 35.8697 194.188 35.0045 193.994 34.1671C193.817 33.285 193.623 32.4477 193.385 31.5935C193.035 30.0861 192.597 28.5451 192.186 27.0656C192.148 26.8981 192.081 26.6692 192.042 26.5017L192.081 26.6691C191.959 26.3174 191.898 25.9378 191.804 25.6475C191.82 25.6029 191.748 25.5246 191.681 25.2957C191.681 25.2957 191.698 25.2511 191.67 25.1897C191.298 23.8777 190.91 22.6102 190.477 21.3259C190.043 20.0417 189.565 18.7407 189.009 17.5121C187.814 14.8705 186.289 12.1558 183.646 10.6503C182.464 10.001 181.282 9.35174 180.066 8.7917C178.583 8.13078 177.071 7.40847 175.504 6.97063C173.847 6.49916 172.157 6.11685 170.494 5.79605C167.409 5.1939 164.33 4.44121 161.206 3.67158C161.161 3.65476 161.116 3.63795 161.206 3.67158C159.024 3.10439 156.905 2.50928 154.723 1.94209C153.842 1.71185 152.961 1.48168 152.062 1.29606C151.315 1.11626 150.551 0.981004 149.786 0.845826C147.566 0.518535 145.305 0.431151 143.1 0.874008C141.945 1.10093 140.772 1.37247 139.683 1.82831C138.656 2.25634 137.701 2.76268 136.773 3.33039C134.857 4.49362 133.169 5.99757 131.615 7.55203C130.296 8.88922 128.994 10.1819 127.53 11.3626C127.094 11.7079 126.675 12.0086 126.211 12.2924C125.887 12.476 125.58 12.615 125.256 12.7986C124.966 12.893 124.72 13.0042 124.43 13.0986C123.927 13.215 123.469 13.3482 122.984 13.42C122.498 13.4918 122.029 13.5188 121.577 13.5014C121.214 13.5175 120.824 13.4723 120.433 13.427C119.954 13.3481 119.518 13.2859 119.055 13.1624C118.085 12.8985 117.103 12.5286 116.105 12.2033C113.957 11.5469 111.77 11.1304 109.532 11.2551C107.188 11.3908 104.949 11.923 102.882 13.0804C100.832 14.1932 98.9324 15.7191 97.4728 17.5639C96.0301 19.3641 94.9553 21.4048 94.1929 23.5632C93.7726 24.6787 93.4415 25.8278 93.1272 26.9323C92.8633 27.9029 92.6273 28.9348 92.5865 29.9895C92.551 31.3009 92.6939 32.6796 92.8704 33.969C93.0081 35.0909 93.2351 36.2464 93.5235 37.3742C93.7453 38.273 94.0117 39.1887 94.3395 40.0765C94.6118 40.8415 94.9286 41.6233 95.2177 42.3437C95.9238 43.9855 96.619 45.5213 97.3865 47.1354C97.6368 47.6882 97.9317 48.2579 98.2434 48.783C98.6217 49.5369 99 50.2911 99.412 50.9559C99.8795 51.7435 100.347 52.531 100.831 53.274C101.483 54.3856 102.257 55.4416 102.969 56.5254C103.71 57.6706 104.422 58.7544 105.163 59.8997C105.135 59.8382 105.062 59.76 105.035 59.6986C105.53 60.5476 106.042 61.352 106.654 62.2961C107.094 63.0223 107.562 63.8101 108.174 64.7542C109.209 66.4691 110.228 68.2287 111.235 69.8822C111.547 70.4072 111.831 70.8708 112.143 71.3959C112.738 72.3846 113.289 73.3566 113.885 74.3453C115.465 77.1828 116.984 80.0481 118.52 82.8688C120.128 85.7677 121.859 88.6112 123.747 91.3097C124.732 92.7511 125.735 94.1477 126.798 95.5167C127.244 96.0922 127.673 96.7125 128.18 97.2602C129.104 98.322 129.968 99.4117 130.971 100.401C131.712 101.139 132.503 101.743 133.356 102.319C133.724 102.56 134.137 102.817 134.505 103.058C134.873 103.298 135.257 103.494 135.625 103.735C136.127 104.026 136.629 104.317 137.192 104.58C137.505 104.698 137.862 104.832 138.191 104.905C138.325 104.956 138.503 105.023 138.637 105.073C139.172 105.275 139.708 105.477 140.232 105.573C140.321 105.606 140.411 105.64 140.517 105.629C139.974 106.392 139.432 107.156 138.961 107.998C138.593 107.758 138.253 107.578 137.885 107.338C136.024 105.923 134.274 104.346 132.468 102.647C130.039 100.305 127.721 97.8007 125.292 95.4585C123.052 93.2896 120.778 91.21 118.449 89.0074C117.301 87.8615 116.092 86.7434 115.022 85.5251C113.852 84.1671 112.682 82.8092 111.557 81.468C110.867 80.5963 110.193 79.6799 109.564 78.7804C109.291 78.4228 109.035 78.0206 108.779 77.6184C108.35 76.9982 107.949 76.4396 107.565 75.8363C106.396 74.0709 105.243 72.2608 104.074 70.4955C103.005 68.8698 101.858 67.3166 100.666 65.7465C97.865 62.0922 94.4662 58.6712 90.4349 56.3878C88.2046 55.1397 85.8287 54.1424 83.5143 53.1174C81.8078 52.3724 80.1349 51.5383 78.4788 50.6594C77.8431 50.318 77.1797 49.9151 76.544 49.5736C74.8769 48.5887 73.2098 47.6038 71.5091 46.7081C70.6671 46.238 69.8252 45.7679 68.8882 45.4148C67.9066 45.0449 66.8971 44.6135 65.9323 44.199C63.8798 43.4255 61.7768 42.7859 59.5672 42.5647C57.073 42.2872 54.5446 42.5062 52.1772 43.2446C50.8483 43.661 49.5917 44.1556 48.3184 44.6949C47.0897 45.2509 45.8443 45.8516 44.6712 46.5306C42.4312 47.8774 40.2299 49.3917 38.4632 51.3756C34.3038 55.9226 32.7816 62.1257 31.6784 68.0282C30.9463 72.1343 30.6048 76.2857 29.5882 80.3356C29.3412 81.2616 29.0496 82.1707 28.6797 83.1523C28.5788 83.42 28.4947 83.643 28.3492 83.8939C28.0808 84.2004 27.9295 84.602 27.8397 84.9757C27.7051 85.3327 27.5537 85.7342 27.33 86.0575C26.843 86.944 26.2668 87.7969 25.6907 88.6498C25.0698 89.4859 24.4213 90.2607 23.6835 91.0017C23.0239 91.6703 22.3196 92.322 21.5876 92.9124C20.7941 93.5305 19.9728 94.0872 19.1516 94.6439C18.6711 94.9724 18.1628 95.2394 17.6991 95.5233C17.1126 95.8627 16.5261 96.2022 15.9228 96.5863C15.4591 96.8701 14.934 97.1818 14.4704 97.4656C13.9899 97.7941 13.4648 98.1058 12.9675 98.4788C12.4702 98.8519 11.9561 99.2698 11.4142 99.626C10.9001 100.044 10.4307 100.478 9.9166 100.896C9.10633 101.559 8.36843 102.3 7.61377 103.085C6.51249 104.25 5.50049 105.448 4.63331 106.803C3.76612 108.157 3.01591 109.607 2.46106 111.079C1.53631 113.533 0.968524 116.122 0.897371 118.745C0.820397 121.518 1.08941 124.32 1.9223 126.978C2.73837 129.68 4.029 132.205 5.50402 134.646C6.28324 135.959 7.07936 137.227 7.93683 138.467C8.69406 139.567 9.51272 140.64 10.3928 141.685C11.3007 142.792 12.164 143.881 13.2116 144.888C14.1422 145.799 15.0727 146.71 16.1933 147.387C16.8568 147.79 17.5371 148.148 18.2342 148.462C18.7697 148.664 19.305 148.865 19.8741 148.978C20.4263 149.135 20.9955 149.248 21.5477 149.405C23.372 149.837 25.1684 150.209 26.948 150.624C27.874 150.872 28.7386 151.146 29.631 151.483C30.0326 151.634 30.4174 151.83 30.7575 152.009C31.0977 152.188 31.3763 152.395 31.6996 152.619C31.9337 152.809 32.1232 152.982 32.3573 153.172C32.5746 153.407 32.8365 153.659 33.037 153.938C33.7664 154.977 34.3898 156.027 35.0746 157.05C35.4865 157.715 35.9152 158.335 36.4054 158.927C36.7507 159.363 37.1407 159.816 37.5474 160.224C38.0266 160.71 38.584 161.124 39.1583 161.493C40.2899 162.276 41.5948 162.87 42.8106 163.43C44.0709 164.007 45.3312 164.584 46.6252 165.071C48.4546 165.761 50.3117 166.511 52.1916 167.067C54.2053 167.673 56.2081 168.173 58.2445 168.584C62.0326 169.349 65.866 169.723 69.6658 170.187C71.7972 170.481 73.8839 170.758 76.0321 171.007C77.1593 171.126 78.3311 171.261 79.475 171.336C80.5298 171.377 81.6013 171.373 82.6728 171.369C84.5759 171.322 86.4623 171.319 88.388 171.077C89.0858 170.983 89.7666 170.934 90.4812 170.796C91.3018 170.646 92.1115 170.391 92.8933 170.074C93.8258 169.763 94.7305 169.391 95.652 168.974C99.3044 167.395 102.79 165.447 106.231 163.483C109.594 161.591 112.901 159.576 116.219 157.667C117.839 156.749 119.414 155.814 121.045 155.002C121.877 154.552 122.709 154.101 123.586 153.667C124.569 153.222 125.507 152.76 126.49 152.316C127.825 151.749 129.16 151.181 130.539 150.631C131.628 150.175 132.717 149.72 133.851 149.281C135.124 148.741 136.397 148.202 137.709 147.83C138.714 147.598 139.747 147.426 140.796 147.21C141.784 147.022 142.773 146.834 143.761 146.646C143.978 146.881 144.178 147.16 144.396 147.395C144.239 147.54 144.127 147.701 143.988 147.802C143.736 148.063 143.468 148.37 143.216 148.632C142.713 149.156 142.255 149.696 141.735 150.264C139.879 152.215 137.978 154.148 136.095 156.037C135.044 157.067 134.037 158.115 132.959 159.084C131.958 159.981 130.958 160.878 129.93 161.713C128.98 162.476 128.075 163.256 127.052 163.941C125.952 164.698 124.868 165.411 123.784 166.123C123.32 166.407 122.795 166.719 122.331 167.003C120.756 167.938 119.17 168.766 117.567 169.64C115.964 170.514 114.316 171.37 112.741 172.305C111.059 173.251 109.378 174.197 107.652 175.126C106.066 175.955 104.452 176.723 102.793 177.473C102.732 177.501 102.67 177.529 102.609 177.557C100.844 178.319 99.0347 179.063 97.2421 179.764C95.4664 180.419 93.6796 180.969 91.9207 181.58C90.24 182.118 88.5703 182.763 86.9453 183.424C85.2141 184.097 83.4998 184.725 81.7745 185.246C80.6467 185.535 79.4744 185.806 78.3188 186.033C74.6231 186.781 70.9712 187.952 67.52 189.403C66.3081 189.915 65.152 190.549 64.1516 191.446C63.3077 192.198 62.5808 193.045 61.9264 193.97C61.3334 194.868 60.8296 195.799 60.3537 196.791C59.1832 199.357 58.4252 202.179 58.4989 204.958C58.5189 206.393 58.6728 207.877 59.0724 209.251C59.2225 209.664 59.3111 210.105 59.4443 210.563C59.9105 212.165 60.4997 213.712 61.3791 215.164C61.9191 216.03 62.4145 216.879 63.0327 217.673C63.5616 218.433 64.152 219.165 64.681 219.924C66.8026 222.813 68.7846 225.802 70.7052 228.819C70.989 229.282 71.2562 229.79 71.4786 230.282C71.562 230.466 71.6286 230.695 71.712 230.879C71.723 230.985 71.7509 231.047 71.7619 231.153C71.756 231.304 71.8117 231.427 71.8058 231.577C71.7767 232.331 71.7029 233.067 71.6292 233.803C71.5438 234.841 71.5199 235.851 71.5852 236.895C71.6395 237.833 71.7663 238.849 72.0327 239.764C72.3101 240.786 72.6044 241.763 72.9432 242.757C73.2879 243.6 73.6326 244.443 73.9772 245.287C74.739 247.051 75.5622 248.788 76.6479 250.369C77.7058 251.889 78.8252 253.381 80.0228 254.8C80.63 255.488 81.2986 256.147 81.9841 256.762C82.7141 257.394 83.5503 258.015 84.4091 258.44C85.2678 258.866 86.1156 259.185 86.997 259.416C87.9062 259.707 88.8213 259.848 89.7363 259.989C91.5663 260.271 93.4132 260.509 95.2885 260.4C96.3154 260.379 97.2699 260.281 98.2858 260.154C99.1511 260.021 100.016 259.889 100.865 259.801C102.048 259.635 103.198 259.559 104.392 259.5C106.837 259.504 109.258 259.703 111.697 259.858C114.091 259.995 116.457 260.072 118.801 260.343C119.37 260.456 119.911 260.507 120.48 260.62C121.004 260.715 121.557 260.873 122.064 261.013C122.778 261.282 123.464 261.49 124.134 261.742C125.188 262.19 126.225 262.683 127.201 263.203C128.087 263.69 129.002 264.239 129.855 264.815C131.371 265.794 132.854 266.862 134.337 267.931C135.775 268.982 137.213 270.033 138.763 270.923C140.358 271.83 142.014 272.709 143.771 273.32C145.466 273.959 147.229 274.419 148.992 274.88C149.873 275.11 150.738 275.385 151.619 275.615C153.008 275.986 154.397 276.356 155.821 276.23C157.244 276.104 158.679 275.677 160.014 275.11C160.382 274.943 160.768 274.732 161.136 274.565C162.248 273.914 163.287 273.184 164.226 272.315C164.712 271.836 165.199 271.357 165.64 270.861C166.932 269.462 168.134 268.03 169.308 266.537C170.388 265.16 171.528 263.755 172.741 262.429C173.166 261.978 173.636 261.543 174.105 261.109C174.591 260.63 175.106 260.212 175.592 259.733C176.67 258.764 177.677 257.716 178.638 256.652C180.008 255.181 181.35 253.648 182.558 252.065C184.129 250.059 185.405 247.89 186.313 245.481C186.33 245.436 186.363 245.347 186.38 245.302C186.543 245.007 186.766 244.683 186.929 244.388C187.304 243.663 187.634 242.921 187.965 242.18C188.234 241.466 188.564 240.724 188.638 239.988C188.751 239.011 188.697 238.073 188.553 237.102C188.666 236.533 188.806 236.026 188.918 235.457C189.29 233.66 189.689 231.925 190.06 230.129C190.026 230.218 189.993 230.307 189.959 230.397C190.313 229.052 190.683 227.663 190.992 226.302C191.15 225.75 191.307 225.198 191.375 224.612C191.527 223.803 191.679 222.994 191.847 222.14C191.96 221.571 192 220.924 192.068 220.338C192.102 219.842 192.181 219.362 192.215 218.865C192.255 218.625 192.294 218.385 192.289 218.129C192.341 216.773 192.438 215.433 192.446 214.061C192.414 212.928 192.428 211.812 192.396 210.679C192.386 209.758 192.349 208.776 192.294 207.838C192.224 206.13 192.093 204.45 191.917 202.754C191.774 201.782 191.692 200.783 191.548 199.812C191.349 198.718 191.133 197.668 190.934 196.574C190.746 195.586 190.496 194.626 190.263 193.621C190.086 192.739 189.82 191.823 189.626 190.986C188.722 187.435 187.773 183.868 186.701 180.356C186.096 178.446 185.491 176.537 184.841 174.61C184.303 172.93 183.658 171.26 183.153 169.49C183.097 169.367 183.103 169.217 183.047 169.094C183.047 169.094 183.075 169.155 183.103 169.217C182.692 167.737 182.405 166.202 182.039 164.739C182.028 164.633 182 164.572 181.989 164.466C182.184 164.488 182.352 164.449 182.547 164.472C182.976 165.092 183.421 165.668 183.911 166.26C184.903 167.551 185.067 169.142 185.718 170.661C186.107 171.521 186.687 172.147 187.277 172.879C188.23 174.002 188.886 175.37 189.637 176.622C190.444 177.996 191.402 179.376 192.025 180.833C192.86 182.269 193.756 183.677 194.468 185.168C194.707 185.615 194.751 186.039 194.823 186.524C194.912 186.965 195.106 187.395 195.301 187.825C195.951 189.344 196.557 190.847 197.208 192.366C198.831 196.442 200.348 200.529 201.91 204.634C203.443 208.677 204.949 212.658 206.5 216.656C207.295 218.739 208.045 220.805 209.024 222.805C210.003 224.804 211.166 226.72 212.531 228.508C213.249 229.441 214.029 230.347 214.809 231.252C215.561 232.096 216.375 232.912 217.205 233.683C218.748 235.131 220.499 236.3 222.266 237.425C224.034 238.55 225.767 239.763 227.552 240.843C228.494 241.453 229.48 242.08 230.534 242.528C231.544 242.959 232.525 243.329 233.591 243.476C234.506 243.617 235.399 243.546 236.276 243.52C237.319 243.454 238.458 243.272 239.48 242.995C240.652 242.723 241.735 242.418 242.824 241.962C244.081 241.467 245.371 240.884 246.6 240.328C247.214 240.05 247.845 239.727 248.443 239.493C249.347 239.121 250.218 238.838 251.089 238.555C251.486 238.449 251.865 238.388 252.306 238.3C252.625 238.267 252.987 238.251 253.305 238.218C253.607 238.229 253.908 238.241 254.254 238.27C254.477 238.354 254.689 238.332 254.913 238.416C255.314 238.567 255.688 238.657 256.089 238.808C257.026 239.161 257.851 239.676 258.755 240.119C259.658 240.561 260.578 240.959 261.56 241.329C263.434 242.035 265.342 242.652 267.3 243.135C268.332 243.371 269.381 243.562 270.402 243.692C271.423 243.822 272.444 243.952 273.488 243.887C274.47 243.85 275.486 243.723 276.491 243.49C277.496 243.257 278.49 242.919 279.484 242.58C281.444 241.841 283.404 241.102 285.336 240.301C285.934 240.068 286.531 239.834 287.084 239.584C287.391 239.445 287.76 239.278 288.039 239.078C288.888 238.583 289.665 238.009 290.458 237.391C291.313 236.745 292.14 236.038 292.94 235.269C296.086 232.327 298.882 229.101 301.46 225.639C301.46 225.639 301.494 225.55 301.572 225.478C301.622 225.344 301.779 225.199 301.874 225.082C302.702 223.967 303.368 222.741 303.917 221.419C304.169 220.75 304.421 220.08 304.673 219.411C304.875 218.876 305.094 218.296 305.206 217.727C305.588 216.444 305.774 215.138 305.96 213.833C306.226 211.64 306.358 209.397 306.534 207.17C306.722 205.05 306.926 202.885 307.025 200.731C307.311 196.457 306.994 192.159 307.324 187.902C307.5 186.49 307.781 185.068 308.107 183.662C308.337 182.78 308.612 181.916 308.931 181.068C309.329 180.148 309.788 179.2 310.275 178.314C311.378 176.334 312.419 174.383 313.388 172.353C313.863 171.36 314.339 170.368 314.815 169.375C315.241 168.517 315.666 167.658 316.019 166.721C316.871 164.596 317.634 162.438 318.084 160.161C318.483 158.019 318.777 155.888 318.513 153.75C318.297 152.293 317.976 150.847 317.241 149.551C316.239 147.747 314.484 146.321 312.582 145.554C310.529 144.78 308.298 144.347 306.093 144.382C303.934 144.435 301.74 144.576 299.58 144.628C297.465 144.697 295.322 144.705 293.207 144.774C291.047 144.827 288.825 144.907 286.666 144.959L286.755 144.993C284.311 144.989 281.855 144.879 279.366 144.858C277.195 144.804 275.085 145.13 272.958 145.5C270.848 145.826 268.721 146.197 266.639 146.584C262.475 147.358 258.354 148.557 254.178 149.225C252.359 149.457 250.539 149.688 248.736 149.875C247.039 150.051 245.359 150.182 243.624 150.19C242.569 150.15 241.559 150.126 240.538 149.996C239.427 149.832 238.306 149.562 237.229 149.309C236.063 149.023 234.887 148.63 233.738 148.299C232.722 148.019 231.679 147.676 230.697 147.306C230.519 147.239 230.296 147.155 230.134 147.043C229.794 146.864 229.471 146.64 229.103 146.4C228.518 145.925 227.916 145.494 227.33 145.019C226.962 144.778 226.55 144.521 226.199 144.235C226.065 144.185 226.009 144.062 225.892 143.967C226.649 141.959 227.11 139.789 227.253 137.652C227.356 135.755 227.337 133.913 227.228 132.038C227.317 132.072 227.407 132.105 227.513 132.094C228.35 132.308 229.197 132.627 230.062 132.902C230.954 133.238 231.819 133.513 232.711 133.849C234.675 134.589 236.627 135.223 238.674 135.74C238.853 135.807 239.076 135.891 239.271 135.914C241.737 136.537 244.208 137.01 246.697 137.438C247.958 137.608 249.247 137.839 250.541 137.919C251.925 138.033 253.298 138.04 254.643 137.987C256.245 137.928 257.869 137.674 259.466 137.359C261.107 137.06 262.693 136.638 264.323 136.233C265.864 135.795 267.45 135.374 268.935 134.812C270.465 134.268 271.922 133.645 273.442 132.995C274.793 132.383 276.172 131.833 277.462 131.249L277.831 131.082C279.322 130.371 280.813 129.659 282.232 128.868C283.59 128.106 284.902 127.327 286.276 126.52C287.651 125.713 289.086 124.878 290.433 124.01C291.701 123.214 292.958 122.312 294.17 121.393C295.461 120.402 296.752 119.411 297.942 118.28C299.15 117.104 300.312 115.912 301.375 114.58C302.376 113.276 303.215 111.859 303.938 110.348C304.643 108.882 305.215 107.365 305.77 105.892C306.325 104.42 306.835 102.931 307.15 101.419C307.346 100.627 307.515 99.7733 307.516 98.9585C307.562 98.1606 307.547 97.3904 307.397 96.5698C307.259 95.8552 307.059 95.1685 306.798 94.5096C306.192 93.0074 305.402 91.5887 304.595 90.2146L304.337 90.627ZM194.359 54.0234C194.386 54.4922 194.352 54.9889 194.334 55.4409C194.288 56.6462 194.224 57.8962 194.284 59.0905C194.327 60.3295 194.448 61.496 194.507 62.6904C194.628 63.8569 194.643 65.0344 194.702 66.2287C194.79 67.4845 194.815 68.7681 194.858 70.0071C194.849 72.1947 194.778 74.41 194.574 76.575C194.455 77.7021 194.336 78.8292 194.262 79.9731C194.204 81.0724 194.164 82.127 194.123 83.1817C194.043 84.4762 194.024 85.7431 193.899 87.0208C193.791 88.2539 193.683 89.487 193.514 90.748C193.355 92.1149 193.258 93.4542 193.1 94.8212C193.088 95.1225 193.032 95.407 193.037 95.6637C191.826 95.3603 190.649 94.9678 189.439 94.6645C189.26 94.5972 189.004 94.6023 188.825 94.5351C188.77 94.4122 188.775 94.2616 188.781 94.1109C188.626 93.441 188.471 92.7711 188.377 92.0734C187.98 89.0704 187.689 86.0564 187.593 83.0651C187.589 82.401 187.584 81.7367 187.641 81.0448C187.698 80.3529 187.738 79.7057 187.795 79.0137C188.077 77.1838 188.331 75.2925 188.675 73.4347C189.007 71.4709 189.429 69.5406 189.895 67.6272C190.086 66.9858 190.215 66.3721 190.406 65.7306C190.844 64.1632 191.371 62.6295 191.853 61.0788C192.139 60.3203 192.38 59.545 192.621 58.7697C192.89 58.0558 193.132 57.2806 193.356 56.5499C193.693 55.2501 194.058 54.0117 194.35 52.6952C194.366 53.0579 194.41 53.4822 194.426 53.8449L194.359 54.0234ZM139.432 103.64L139.075 103.506L138.762 103.388C138.405 103.254 138.048 103.119 137.708 102.94C137.073 102.599 136.515 102.185 135.896 101.799L135.573 101.575C134.854 101.049 134.062 100.445 133.349 99.7687C132.87 99.2824 132.363 98.7348 131.945 98.2207C130.865 96.8963 129.879 95.4549 129.049 94.276C128.493 93.4548 127.953 92.5889 127.413 91.723L127.157 91.3208C126.845 90.7957 126.489 90.2537 126.177 89.7287C125.298 88.2763 124.435 86.7793 123.617 85.2991C122.459 83.2324 121.336 81.0764 120.301 78.9541C119.895 78.1387 119.472 77.3679 119.066 76.5525C117.241 73.0114 115.744 70.3582 114.252 67.9617L114.341 67.9954C114.341 67.9954 114.224 67.9002 114.152 67.8219C113.896 67.4197 113.64 67.0176 113.4 66.5708L112.888 65.7662C111.129 62.8615 109.465 60.2471 107.811 57.7387C107.327 56.9957 106.826 56.2973 106.342 55.5543C105.857 54.8113 105.356 54.1129 104.872 53.3699C104.716 53.1073 104.543 52.8895 104.387 52.6269C104.131 52.2247 103.858 51.867 103.602 51.4648L102.906 50.3365L102.266 49.3308L101.76 48.3757C101.254 47.4206 100.703 46.4487 100.258 45.4658C99.6014 44.0975 98.9619 42.6846 98.3391 41.227L98.1614 40.7525C97.7333 39.7249 97.322 38.6527 97.0167 37.5696C96.7561 36.5033 96.5234 35.4984 96.3521 34.4657C96.2033 33.2378 96.0824 32.0711 96.0507 30.9382C96.0624 30.6369 96.074 30.3356 96.1025 29.9896C96.1704 29.4037 96.2997 28.7901 96.4626 28.0872L96.4795 28.0426C96.5299 27.9087 96.5635 27.8195 96.614 27.6857C96.9114 26.6258 97.2871 25.4936 97.7243 24.3336C98.0101 23.5751 98.3684 22.8949 98.6931 22.3038C99.0791 21.685 99.4484 21.1108 99.8008 20.5812C100.198 20.0684 100.561 19.6449 100.908 19.266C101.316 18.8592 101.785 18.4247 102.378 17.9346C102.814 17.5893 103.294 17.2609 103.836 16.9046C104.423 16.5652 104.992 16.2702 105.545 16.02C105.914 15.8532 106.31 15.7479 106.706 15.6425C107.209 15.5261 107.712 15.4097 108.259 15.3101C108.895 15.2442 109.487 15.1614 110.089 15.1847C110.692 15.208 111.25 15.2146 111.836 15.2825C112.422 15.3504 112.991 15.4629 113.649 15.6091C114.486 15.8225 115.35 16.0974 116.154 16.4L116.511 16.5346C117.269 16.8204 118.195 17.0675 119.093 17.2531C119.947 17.4219 120.79 17.4846 121.649 17.5028C122.721 17.4989 123.736 17.3723 124.741 17.1396L124.708 17.2287C124.774 17.4577 124.858 17.642 124.924 17.8709C125.019 18.1613 125.113 18.4515 125.18 18.6804C125.257 19.0154 125.396 19.3226 125.474 19.6576C125.568 19.9479 125.68 20.1937 125.746 20.4226C126.158 21.4948 126.613 22.5836 127.025 23.6558C127.464 24.7893 127.886 25.9676 128.37 27.118C128.881 28.3298 129.42 29.603 129.977 30.8316C130.46 31.982 130.961 33.0879 131.523 34.1658C131.662 34.473 131.862 34.7523 132.001 35.0594C132.157 35.322 132.313 35.5846 132.469 35.8472C132.781 36.3722 133.109 36.8526 133.421 37.3777C133.465 37.3945 133.476 37.5006 133.549 37.5788C133.549 37.5788 133.549 37.5789 133.521 37.5175C133.621 37.6571 133.677 37.78 133.794 37.875C133.794 37.875 133.794 37.875 133.749 37.8582C133.849 37.9979 133.95 38.1376 134.005 38.2604C134.434 38.8806 134.863 39.5006 135.247 40.104C135.319 40.1822 135.375 40.3051 135.403 40.3666C135.431 40.428 135.503 40.5062 135.531 40.5676C135.586 40.6905 135.703 40.7857 135.759 40.9085C136.188 41.5287 136.617 42.1488 137.028 42.8136C135.399 39.2952 133.954 35.6933 132.43 32.1639C131.463 29.8631 130.512 27.5177 129.467 25.2893C128.966 24.1836 128.421 23.0609 127.965 21.972C127.687 21.3577 127.453 20.7602 127.175 20.1459C126.942 19.5484 126.709 18.9508 126.475 18.3533C126.475 18.3533 126.475 18.3534 126.503 18.4148C126.409 18.1244 126.297 17.8786 126.247 17.6051C126.164 17.4208 126.142 17.2088 126.103 17.0413C126.103 17.0413 126.103 17.0413 126.059 17.0245C126.349 16.9301 126.684 16.8525 126.991 16.7135L127.298 16.5744C128.605 15.9459 129.862 15.044 131.243 13.679C132.26 12.7375 133.25 11.7347 134.239 10.7318C134.725 10.2526 135.212 9.77342 135.742 9.3111C136.151 8.90438 136.586 8.55911 136.978 8.19701L137.134 8.05211C137.71 7.6066 138.33 7.1779 138.933 6.79382C139.581 6.42655 140.229 6.05939 140.905 5.75356C141.458 5.50333 142.038 5.31446 142.602 5.17028C143.289 4.9705 144.004 4.83216 144.718 4.6938C145.265 4.59424 145.84 4.55612 146.443 4.57942C147.319 4.55295 148.251 4.64941 149.227 4.76261C150.533 4.94889 151.805 5.22443 152.882 5.47731L153.808 5.72424L154.644 5.9377L154.778 5.98815C155.18 6.13948 155.615 6.20161 156.034 6.30832L156.959 6.55539L157.54 6.77399L157.316 6.68994L158.527 6.99328L158.616 7.02689C158.616 7.02689 158.616 7.02691 158.661 7.04372C158.661 7.04372 158.661 7.04371 158.616 7.02689C158.884 7.12778 159.169 7.18395 159.453 7.24022C160.948 7.59981 162.443 7.95937 163.955 8.27434C164.747 8.47095 165.556 8.62307 166.348 8.81968C167.47 9.08937 168.608 9.31436 169.835 9.57307C171.018 9.81496 172.29 10.0905 173.562 10.366C174.293 10.5904 175.023 10.8149 175.782 11.1007L176.094 11.2185C176.719 11.4539 177.282 11.717 177.829 12.0249C178.643 12.4336 179.457 12.8422 180.299 13.3124L180.388 13.346C180.388 13.346 180.433 13.3628 180.477 13.3796C180.477 13.3796 180.433 13.3628 180.388 13.346C180.522 13.3964 180.611 13.4301 180.728 13.5252C181.185 13.7994 181.732 14.1072 182.217 14.4428C182.406 14.6161 182.613 14.7448 182.802 14.9181C182.992 15.0914 183.164 15.3093 183.309 15.4658C183.582 15.8234 183.855 16.181 184.066 16.5664C184.434 17.2144 184.801 17.8623 185.118 18.6441C185.351 19.2416 185.529 19.7163 185.735 20.2524C185.857 20.6042 185.979 20.9559 186.101 21.3077L186.196 21.598C186.396 22.2847 186.595 22.9716 186.795 23.6583L187.006 24.451C187.716 27.1643 188.409 29.9223 189.164 32.6524C189.463 33.8862 189.807 35.1369 190.062 36.3539L190.189 36.9623C190.278 37.4033 190.411 37.8611 190.438 38.33L190.56 39.0892C190.648 39.5302 190.693 39.9543 190.781 40.3954L190.869 41.2437C190.963 41.9415 191.057 42.6392 191.106 43.3201C191.177 44.2131 191.276 45.1676 191.307 46.3005L191.324 46.6633C191.334 47.1767 191.3 47.6732 191.265 48.1698L191.191 49.3138L191.112 50.201L191.027 50.4242C190.936 51.6127 190.756 52.7675 190.469 53.9334C190.155 55.0378 189.869 56.2037 189.51 57.2914C189.274 57.916 189.111 58.6188 188.876 59.2435L188.439 60.4036C188.152 61.5695 187.793 62.657 187.462 63.8061C187.171 64.7153 186.951 65.7027 186.704 66.6287L186.519 67.1195C185.789 70.0034 185.265 73.0162 184.775 75.9397L184.55 77.0777C184.415 77.842 184.263 78.6509 184.173 79.432C184.093 80.3192 183.969 81.1896 183.934 82.0936C183.877 82.7855 183.881 83.4496 183.914 84.1751L183.907 84.7331C183.934 85.6093 183.977 86.4409 184.037 87.2279C184.169 88.9079 184.306 90.4372 184.493 91.8327L184.554 92.2122C184.648 92.91 184.697 93.5909 184.897 94.2776C184.657 94.2382 184.461 94.2156 184.222 94.1761C182.659 93.995 181.019 93.8863 179.317 93.8054C176.861 93.6954 173.998 93.5847 171.068 93.6524C171.041 93.1836 170.953 92.7426 170.926 92.2737C170.882 91.8495 170.838 91.4254 170.838 91.018C170.811 90.5492 170.784 90.0804 170.757 89.6116C170.741 89.2488 170.68 88.8691 170.664 88.5064C170.609 87.9761 170.582 87.5074 170.527 86.9772L170.439 86.1288C170.373 85.4925 170.334 84.9176 170.207 84.3091L170.075 83.4439C169.998 82.7016 169.904 82.0038 169.782 81.2447C169.368 78.6937 168.981 76.204 168.461 73.664C167.979 71.2914 167.352 68.7624 166.57 65.9709C166.464 65.5745 166.331 65.1167 166.181 64.7034L166.048 64.2457C165.898 63.8325 165.765 63.3747 165.615 62.9614L165.476 62.6542C165.12 61.7049 164.781 60.7111 164.364 59.7896L163.992 58.885L163.619 57.9802C163.891 59.1526 164.039 60.3806 164.233 61.6254C164.37 62.7473 164.508 63.8692 164.585 65.0189L164.678 66.1241C164.766 66.9725 164.837 67.8655 164.925 68.7139C165.194 71.5157 165.497 73.821 165.974 75.9369L166.621 79.0854C166.937 80.682 167.269 82.2339 167.585 83.8304C168 85.974 168.454 88.2853 168.94 91.3219C169.09 92.1425 169.194 92.9462 169.344 93.7668C169.087 93.7719 168.83 93.7771 168.557 93.8269C164.7 94.055 160.932 94.7241 157.375 95.7786C156.63 93.9693 156.008 92.1043 155.464 90.5744C155.125 89.5805 154.758 88.5252 154.42 87.5313C153.931 86.1242 153.459 84.6724 152.97 83.2653C152.086 80.7414 151.225 78.4297 150.341 76.3133C149.985 75.364 149.429 74.1353 148.873 72.9067C148.467 72.0913 148.122 71.2481 147.716 70.4326L147.015 69.0475C147.31 70.0246 147.604 71.0016 147.898 71.9786C148.375 73.6871 148.791 75.4234 149.224 77.115C149.573 78.6223 149.989 80.3585 150.483 82.0223L150.427 81.8995C150.993 84.049 151.754 86.2211 152.677 88.5051C153.105 89.5326 153.516 90.6047 153.961 91.5876C154.083 91.9394 154.267 92.2634 154.434 92.632L154.673 93.0788C154.812 93.386 154.951 93.6931 155.09 94.0003L155.313 94.4917L155.396 94.676L155.741 95.5193L155.852 95.765L155.991 96.0722C155.991 96.0722 155.991 96.0722 155.974 96.1168C154.628 96.5778 153.31 97.1002 152.037 97.6395C151.484 97.8897 150.931 98.1399 150.423 98.4069C149.468 98.9132 148.451 99.4474 147.446 100.088C147.446 100.088 147.401 100.071 147.356 100.054L147.267 100.02C146.805 99.4893 146.354 99.0644 145.902 98.6395L145.334 98.1196C145.072 97.8681 144.81 97.6165 144.548 97.365L144.403 97.2086C143.807 96.6272 143.183 95.9843 142.62 95.3137C142.548 95.2355 142.448 95.0959 142.347 94.9562L142.437 94.9898C142.437 94.9898 142.175 94.7382 142.03 94.5817C142.03 94.5817 142.03 94.5817 142.075 94.5985C142.075 94.5985 142.03 94.5818 142.002 94.5203L141.913 94.4867C141.601 93.9616 141.256 93.5257 140.883 93.0284C140.582 92.6094 140.254 92.129 139.97 91.6653L139.669 91.2463C139.012 90.2854 138.416 89.2966 137.821 88.3079L137.665 88.0453C137.665 88.0453 137.637 87.9839 137.609 87.9225C136.903 86.688 136.123 85.3752 135.422 83.9901C134.777 82.7278 134.165 81.3764 133.442 79.7792L133.32 79.4274C132.959 78.6288 132.614 77.7855 132.331 76.9145C132.114 76.2724 131.898 75.6303 131.681 74.9881C131.492 74.4074 131.303 73.8268 131.114 73.2461C130.776 72.2522 130.381 71.1355 129.887 69.879L129.364 68.5611C129.075 67.8408 128.803 67.0758 128.514 66.3554L128.28 65.7579C127.924 64.8086 127.524 63.8424 127.124 62.8763C126.985 62.5692 126.846 62.2621 126.707 61.9549C127.056 63.4622 127.316 64.936 127.553 66.605C127.918 68.8824 128.417 71.2104 129.043 73.7394C129.37 75.0347 129.787 76.3634 130.192 77.5862C130.325 78.0441 130.548 78.5355 130.726 79.0102L130.865 79.3174C131.098 79.9149 131.348 80.4678 131.582 81.0653L131.648 81.2941C132.299 82.8131 133.039 84.3658 133.94 86.0303C134.786 87.5719 135.693 89.0857 136.645 90.6164C137.258 91.5605 137.898 92.566 138.599 93.5438C139.045 94.1193 139.401 94.6611 139.819 95.1752L140.036 95.4099C140.036 95.4099 140.354 95.7844 140.482 95.9855L140.799 96.3599L141.217 96.8741C141.217 96.8741 141.507 97.187 141.696 97.3603L141.914 97.595C141.914 97.595 142.293 97.9417 142.482 98.115C142.978 98.5566 143.519 99.0151 144.015 99.4568L144.483 99.837C144.951 100.217 145.374 100.581 145.781 100.989C145.642 101.089 145.502 101.189 145.379 101.245C143.921 102.275 142.753 103.21 141.764 104.213L141.512 104.475C141.272 104.436 141.032 104.396 140.792 104.357C140.524 104.256 140.257 104.155 139.989 104.054L139.9 104.021C139.9 104.021 139.855 104.004 139.811 103.987C139.811 103.987 139.677 103.937 139.632 103.92L139.454 103.852L139.432 103.64ZM74.1964 167.36C73.1307 167.213 72.0372 167.004 70.9714 166.858C69.9672 166.683 68.9015 166.536 67.8973 166.361C66.1118 166.096 64.2817 165.814 62.4685 165.488C60.8952 165.201 59.3833 164.886 57.6205 164.425C56.2315 164.054 54.7977 163.667 53.353 163.174C52.0423 162.731 50.7038 162.226 49.3652 161.722L49.2313 161.671C46.4539 160.523 44.1841 159.515 41.9538 158.267L42.043 158.3C42.043 158.3 42.0429 158.3 41.9983 158.283C41.9983 158.283 42.043 158.3 42.0877 158.317C42.0877 158.317 41.9984 158.283 41.9538 158.267C41.6583 158.104 41.3349 157.88 41.0116 157.657C40.8221 157.483 40.6604 157.371 40.4709 157.198C40.2814 157.025 40.1367 156.868 40.0087 156.667C39.4629 155.952 38.9339 155.192 38.3383 154.204L37.8876 153.371C37.4925 152.662 37.0805 151.997 36.6686 151.332C35.416 149.383 33.231 147.744 30.5984 146.752C29.5275 146.348 28.4399 145.989 27.0955 145.636C26.2587 145.422 25.4218 145.209 24.5404 144.979L23.9714 144.866L23.5252 144.698C22.4931 144.462 21.4612 144.226 20.4795 143.856C20.1226 143.721 19.7823 143.542 19.4422 143.363C19.1467 143.201 18.8233 142.977 18.5446 142.77C18.1042 142.451 17.7253 142.105 17.3632 141.713C16.4773 140.819 15.6082 139.88 14.6001 138.634C13.7924 137.667 12.9737 136.594 12.2164 135.494C11.5594 134.533 10.8747 133.51 10.1511 132.321C9.08799 130.544 8.34241 129.142 7.74749 127.746C7.37502 126.842 7.04709 125.954 6.78067 125.038C6.59767 124.307 6.43155 123.531 6.28218 122.71C6.16643 121.8 6.0952 120.907 6.0855 119.986C6.0868 119.172 6.13275 118.374 6.20648 117.637C6.18966 117.682 6.24526 117.805 6.27306 117.866L6.39536 118.218C6.59518 118.905 6.81181 119.547 7.07305 120.206L7.16739 120.496C7.34522 120.971 7.50625 121.49 7.79013 121.954C8.22403 122.831 8.73626 123.635 9.32666 124.367C10.6801 126.049 12.1848 127.329 13.8409 128.208C15.5416 129.104 17.3938 129.598 19.2911 129.701C20.9931 129.782 22.6562 129.696 24.2192 129.469L24.9785 129.348C25.5087 129.293 25.9943 129.221 26.5414 129.122C28.0765 128.834 29.6564 128.563 31.1747 128.32L31.7665 128.237C32.7378 128.094 33.7536 127.967 34.7637 127.991C35.2157 128.009 35.6232 128.009 36.0584 128.071C36.4043 128.1 36.7334 128.173 37.0626 128.246C37.2857 128.33 37.4642 128.397 37.6873 128.481C37.955 128.582 38.1781 128.666 38.429 128.812C38.6799 128.957 38.9309 129.103 39.165 129.293C39.4883 129.517 39.8395 129.802 40.146 130.07C40.4079 130.322 40.6251 130.557 40.8701 130.853C41.3157 131.428 41.6998 132.032 42.0839 132.635L42.0393 132.618C42.0393 132.618 42.3232 133.082 42.479 133.344C43.158 134.517 43.7587 135.763 44.3039 136.885C44.7378 137.762 45.1102 138.667 45.5273 139.588L46.0388 140.8C47.3289 143.732 48.6145 146 50.0177 147.955C51.02 149.352 51.9111 150.503 52.808 151.504C53.8051 152.644 54.7578 153.767 55.85 154.79C57.2041 156.065 58.2239 157.009 59.2773 157.865C60.4924 158.832 61.7074 159.8 63.0731 160.773C65.2918 162.322 67.678 163.833 70.7393 165.445C72.0106 166.128 73.2096 166.733 74.3192 167.304L74.1964 167.36ZM133.75 124.938C132.98 124.953 132.254 124.986 131.484 125.001L130.502 125.039L127.828 125.101L127.36 125.128L125.802 125.204C125.395 125.203 124.971 125.247 124.563 125.247C124.201 125.263 123.821 125.323 123.414 125.323L123.235 125.256C123.235 125.256 122.872 125.272 122.694 125.204C121.171 124.783 119.57 124.435 117.997 124.148C117.427 124.035 116.858 123.923 116.289 123.81C114.973 123.518 113.656 123.225 112.384 122.95L110.56 122.517C108.903 122.046 107.352 121.563 105.802 121.081C105.534 120.98 105.266 120.879 105.026 120.84C104.491 120.638 103.922 120.525 103.342 120.307L102.048 119.819L100.754 119.331C99.3706 118.81 98.3502 118.273 97.4191 117.769C96.6217 117.316 95.8859 116.835 95.1668 116.309C94.286 115.671 93.4557 114.9 92.4637 114.016C92.0569 113.608 91.6502 113.2 91.2267 112.837C92.0621 113.865 92.9423 114.91 93.8838 115.927C95.7391 117.9 97.8626 119.567 100.182 120.848C100.935 121.285 101.822 121.772 102.664 122.242L102.619 122.225C102.753 122.276 102.886 122.326 102.976 122.36L106.015 123.76C106.506 123.945 106.98 124.174 107.471 124.359L108.006 124.561L108.586 124.78C109.077 124.965 109.568 125.15 110.059 125.335L111.922 125.935L113.126 126.389C114.649 126.81 116.128 127.214 117.277 127.545L118.337 127.843L120.278 128.37C120.59 128.488 120.919 128.561 121.293 128.651C121.516 128.735 121.739 128.819 121.963 128.903C122.498 129.105 122.994 129.139 123.508 129.129C123.809 129.141 124.128 129.108 124.429 129.119L124.942 129.109L125.261 129.076C126.226 129.083 127.236 129.107 128.218 129.07L128.307 129.103C128.307 129.103 128.308 129.103 128.352 129.12C128.352 129.12 128.352 129.12 128.307 129.103C128.307 129.103 128.308 129.103 128.352 129.12C128.352 129.12 128.441 129.154 128.503 129.126C129.937 129.106 131.371 129.086 132.806 129.066L134.541 129.058C134.63 129.499 134.78 129.912 134.869 130.353C135.207 131.754 135.707 133.267 136.379 134.998C136.585 135.534 136.818 136.132 137.068 136.685C137.068 136.685 137.069 136.685 137.024 136.668C136.873 136.662 136.678 136.64 136.527 136.634C135.986 136.583 135.411 136.621 134.864 136.72C134.228 136.786 133.636 136.869 133.044 136.952L131.878 137.073C131.241 137.139 130.605 137.204 129.952 137.315C128.724 137.464 127.496 137.612 126.223 137.744C125.542 137.793 124.906 137.859 124.225 137.908C123.544 137.958 122.88 137.962 122.216 137.967L121.25 137.959C120.374 137.986 119.559 137.984 118.728 138.028C118.002 138.06 117.366 138.126 116.73 138.192C116.032 138.286 115.396 138.352 114.681 138.49C113.754 138.65 112.828 138.811 111.918 138.926L111.052 139.059L110.779 139.109C110.444 139.186 110.081 139.202 109.763 139.235L109.277 139.307C108.959 139.34 108.641 139.373 108.323 139.406L107.916 139.405C107.553 139.421 107.235 139.454 106.872 139.471L106.252 139.492L105.544 139.48L105.047 139.445L103.992 139.405C103.691 139.393 103.345 139.364 102.999 139.336L102.653 139.307C101.766 139.228 100.817 139.176 99.9467 139.052C97.977 138.87 96.0241 138.644 94.0265 138.401L94.1604 138.451L93.8927 138.35C92.7209 138.214 91.46 138.045 90.2604 137.848C88.9716 137.617 87.6549 137.324 86.4443 137.021C84.5923 136.527 82.8186 135.96 81.123 135.321C80.4091 135.052 79.712 134.739 79.0317 134.38L78.5855 134.212C78.2899 134.05 77.9331 133.915 77.6376 133.753C76.5725 133.199 75.552 132.662 74.4869 132.107L74.0854 131.956L73.7343 131.671C74.9215 132.577 76.0641 133.466 77.2682 134.327C77.6361 134.568 78.0042 134.809 78.3721 135.049L78.8292 135.323C79.7268 135.916 80.6412 136.465 81.5892 136.924C84.8736 138.62 88.2537 139.792 91.7463 140.395C93.1412 140.615 94.5528 140.79 95.9477 141.01L97.164 141.163C97.9898 141.27 98.8771 141.349 99.7029 141.457L100.981 141.582C101.371 141.627 101.717 141.655 102.125 141.656L102.666 141.707C103.252 141.775 103.854 141.798 104.457 141.822C105.166 141.834 105.875 141.846 106.583 141.859C106.84 141.854 107.097 141.848 107.354 141.843L107.672 141.81C107.672 141.81 108.141 141.783 108.353 141.761L108.883 141.706C109.307 141.662 109.793 141.59 110.262 141.563C110.959 141.47 111.657 141.376 112.372 141.237C113.572 141.027 114.817 140.834 116 140.669L116.592 140.586C117.016 140.542 117.502 140.47 117.97 140.443C118.757 140.383 119.544 140.323 120.331 140.263C120.845 140.252 121.314 140.225 121.827 140.215C122.491 140.21 123.111 140.189 123.792 140.14C125.092 140.07 126.41 139.955 127.61 139.744C128.246 139.679 128.899 139.568 129.491 139.485C130.127 139.419 130.78 139.309 131.417 139.243C132.008 139.16 132.645 139.094 133.236 139.011L133.767 138.956C134.509 138.879 135.268 138.758 136.038 138.742C136.58 138.794 137.076 138.828 137.617 138.879L138.159 138.93C138.203 138.947 138.214 139.053 138.242 139.114L138.398 139.377C139.344 141.058 140.341 142.606 141.432 144.036C141.432 144.036 141.343 144.002 141.326 144.047L140.991 144.125L139.835 144.352L139.059 144.518L138.284 144.684L137.904 144.745C137.904 144.745 137.463 144.833 137.251 144.855C136.687 144.999 136.062 145.171 135.464 145.405C134.269 145.872 133.119 146.355 131.907 146.867L131.6 147.006C129.606 147.834 127.64 148.724 125.691 149.569L125.507 149.652C123.909 150.375 122.385 151.176 120.966 151.966C118.916 153.079 117.374 153.925 115.922 154.804L113.034 156.518C110.548 157.976 108.045 159.479 105.515 160.92C103.694 161.966 102.013 162.912 100.426 163.741C99.1472 164.431 97.7174 165.115 95.9973 165.894L95.3216 166.2L95.3552 166.11L95.3997 166.127C95.0926 166.266 94.8023 166.361 94.4951 166.5C93.4061 166.955 92.334 167.367 91.2508 167.672C90.9605 167.766 90.6423 167.799 90.3519 167.894C89.9116 167.575 89.3872 167.479 89.1473 167.44C88.9242 167.356 88.6506 167.405 88.4106 167.366C88.26 167.36 88.1093 167.354 87.9586 167.348C87.6573 167.337 87.3728 167.281 87.0714 167.269C84.8786 167.003 82.6916 166.586 80.555 166.036C79.8689 165.828 79.2274 165.638 78.5413 165.43C76.2101 164.45 73.9183 163.229 71.7604 162.059L71.5373 161.975L71.582 161.992C71.582 161.992 71.5819 161.992 71.5373 161.975C71.5373 161.975 71.5819 161.992 71.6265 162.009C71.6265 162.009 71.4927 161.959 71.4035 161.925L71.0911 161.807C70.0597 161.164 68.9946 160.61 67.98 159.922C66.6252 159.054 65.2873 158.143 64.1725 157.315C63.3363 156.694 62.5002 156.073 61.6809 155.408C61.0956 154.932 60.4826 154.396 59.8974 153.92L59.2398 153.367L59.0226 153.132C58.1198 152.282 57.2339 151.388 56.3648 150.449C55.8578 149.901 55.3676 149.309 54.9052 148.778C54.5431 148.387 54.2424 147.968 53.8971 147.532L53.5517 147.096L53.4962 146.973C52.7609 146.085 52.1654 145.096 51.553 144.152L51.3693 143.828L51.1579 143.443C50.8184 142.856 50.4788 142.27 50.184 141.7C49.7779 140.884 49.3272 140.052 48.9826 139.209L48.8434 138.902C48.1205 137.305 47.3698 135.646 46.5854 134.076C46.3183 133.568 46.0512 133.06 45.7841 132.552L45.5449 132.105C44.8103 130.809 43.8474 129.172 42.4933 127.898C40.9051 126.433 39.1766 125.476 37.514 125.155C35.9853 124.885 34.311 124.865 32.536 125.114C30.7609 125.362 29.3487 125.594 28.0424 125.815C27.7689 125.865 27.4953 125.915 27.2218 125.964C26.7193 126.081 26.2337 126.152 25.6866 126.252L23.638 126.55C22.516 126.688 21.3662 126.764 20.1886 126.779C19.5245 126.783 18.9217 126.76 18.3805 126.709C17.9899 126.664 17.6161 126.574 17.1809 126.511C16.7794 126.36 16.3163 126.237 15.9148 126.085C15.5132 125.934 15.1731 125.755 14.7884 125.559C14.4204 125.318 14.0524 125.078 13.6844 124.837C13.3333 124.552 12.9822 124.267 12.6479 123.937C12.1687 123.451 11.6896 122.965 11.3164 122.467C11.0435 122.11 10.8152 121.769 10.5423 121.411C10.047 120.562 9.70232 119.719 9.26842 118.842C8.77373 117.586 8.25125 116.268 7.87943 114.956C7.77402 114.559 7.68552 114.118 7.64155 113.694C7.59758 113.27 7.55353 112.846 7.55418 112.438C7.85682 111.635 8.24865 110.866 8.66834 110.158L8.80283 109.801L8.84749 109.818C8.84749 109.818 8.86434 109.773 8.88115 109.728C8.91478 109.639 8.94844 109.55 9.02669 109.477C9.28407 109.065 9.50782 108.742 9.73157 108.418C10.4306 107.51 11.1742 106.618 11.9625 105.743C12.4825 105.175 13.0917 104.64 13.6562 104.089L14.2039 103.582C14.5337 103.247 14.8913 102.974 15.2657 102.657L15.6233 102.384C16.4 101.811 17.1767 101.237 17.9365 100.708C18.2941 100.435 18.6794 100.224 19.0817 99.9678C19.4225 99.7395 19.7464 99.5558 20.0872 99.3276L21.5119 98.3868C21.7913 98.1863 22.0706 97.9859 22.3053 97.7686L22.6015 97.5236C24.2499 96.2594 25.6752 94.9112 26.8606 93.5236C28.0459 92.136 29.0249 90.6197 29.9315 89.0251C30.0764 89.1816 30.1766 89.3213 30.2769 89.461C32.2156 91.6182 34.1711 93.7309 36.1712 95.8604C36.4609 96.1734 36.6891 96.5141 36.9956 96.7825C37.3299 97.1123 37.6811 97.3975 38.0491 97.638C38.3446 97.8003 38.6232 98.0073 38.8573 98.1975C39.504 98.645 40.1786 99.1538 40.8252 99.6013C41.823 100.334 42.8544 100.977 43.8522 101.71C45.5691 102.969 47.5433 103.814 49.4225 104.777C50.5768 105.365 51.7479 105.908 52.9636 106.468C52.919 106.452 52.8744 106.435 52.8297 106.418C52.9636 106.468 53.1421 106.536 53.276 106.586C53.2313 106.569 53.1867 106.553 53.1421 106.536C53.2314 106.569 53.3206 106.603 53.4545 106.653C53.4545 106.653 53.7222 106.754 53.856 106.805C59.89 109.588 66.3553 111.362 72.5969 113.46C69.4457 112.221 66.3281 110.893 63.2442 109.476C63.2442 109.476 63.2443 109.476 63.1997 109.46C61.8947 108.866 60.6232 108.183 59.3519 107.5C58.7609 107.176 58.1531 106.896 57.5788 106.526C56.8707 106.107 56.1627 105.687 55.4268 105.206C55.4714 105.223 55.516 105.239 55.5607 105.256C54.4568 104.535 53.3083 103.796 52.2045 103.074C51.3515 102.498 50.4986 101.922 49.6456 101.346C48.7034 100.736 47.7166 100.109 46.808 99.4102C46.2228 98.9349 45.7158 98.3871 45.1474 97.8671C44.6514 97.4255 44.1108 96.9671 43.6316 96.4808C43.1803 96.0559 42.7121 95.6757 42.1993 95.2786C41.9374 95.0271 41.6588 94.8201 41.3969 94.5685C41.0457 94.2833 40.65 93.9814 40.2988 93.6962C40.2542 93.6794 40.2263 93.618 40.1539 93.5397C38.9117 92.1035 37.7309 90.6394 36.4887 89.2031C35.0013 87.4707 33.4526 85.7661 32.1664 83.9057C32.5758 82.6842 32.8959 81.4292 33.1546 80.2019C33.4812 78.3887 33.7353 76.4974 33.9558 74.6952L34.0231 74.5167L34.0736 74.3828L34.1136 73.7355C34.3173 71.978 34.5825 70.1926 34.8476 68.4072C35.18 66.4434 35.6016 64.5132 35.967 62.8676L36.0343 62.6891C36.3486 61.5846 36.635 60.4188 37.1 59.3201C37.4867 58.2939 37.9904 57.3627 38.4942 56.4316C38.802 55.8852 39.2049 55.2218 39.6692 54.5306C40.083 53.9732 40.4633 53.505 40.8882 53.0537C40.9832 52.9366 41.1229 52.8364 41.218 52.7194C41.7211 52.1956 42.252 51.7333 42.8275 51.2878C43.9003 50.4692 45.0178 49.6674 46.1294 49.0163C47.1796 48.393 48.3805 47.7754 49.6706 47.1915L50.162 46.9691C51.4967 46.4021 52.6136 46.0077 53.6354 45.7304L53.5124 45.7859C53.5124 45.7859 53.786 45.7362 53.9088 45.6806C54.4727 45.5364 55.0198 45.4368 55.5668 45.3372C56.22 45.2267 56.8842 45.2223 57.6097 45.19C58.4245 45.1913 59.2672 45.254 60.1544 45.3336C60.9802 45.441 61.8338 45.6098 62.6705 45.8232C64.4165 46.3283 66.1119 46.9672 67.8967 47.6398C68.6999 47.9425 69.4249 48.3175 70.1498 48.6926C70.7855 49.034 71.4657 49.3924 72.1014 49.7339L73.579 50.5454L73.7575 50.6127C75.8986 51.8271 78.1289 53.0752 80.4433 54.1002C81.7929 54.7107 83.1592 55.2766 84.5703 55.8593L85.2842 56.1284C86.5892 56.722 88.0002 57.3046 89.3161 58.0043C90.2919 58.5249 91.1896 59.118 92.115 59.7724C93.1406 60.5665 94.1939 61.4221 95.2415 62.4283C96.3169 63.496 97.4312 64.731 98.6288 66.1505L99.2748 67.0053C99.8206 67.7205 100.394 68.4972 100.923 69.257C101.68 70.3576 102.476 71.6258 103.428 73.1564C104.169 74.3016 104.892 75.4915 105.616 76.6813C106.028 77.3461 106.456 77.9661 106.868 78.6309C107.152 79.0945 107.453 79.5136 107.781 79.9941C108.166 80.5974 108.567 81.1562 109.012 81.7317C109.213 82.011 109.413 82.2904 109.613 82.5697C110.014 83.1284 110.432 83.6426 110.833 84.2013L111.379 84.9165C111.797 85.4306 112.214 85.9447 112.632 86.4588L113.267 87.2076C113.885 88.0011 114.465 88.627 114.972 89.1747C116.582 90.8515 118.209 92.4837 119.836 94.1159C120.984 95.2618 122.132 96.4076 123.279 97.5535C124.238 98.5261 125.135 99.5265 126.031 100.527L127.045 101.622C128.522 103.249 129.887 104.629 131.196 105.887C132.795 107.458 134.166 108.688 135.515 109.706C135.956 110.025 136.352 110.327 136.792 110.645C135.998 111.671 135.382 112.764 134.873 113.845C134.576 114.498 134.335 115.273 134.149 116.171L132.894 115.851C132.386 115.711 131.851 115.509 131.315 115.307L130.869 115.139C130.066 114.837 129.263 114.534 128.538 114.159C127.277 113.582 126.023 112.854 124.841 112.205L124.395 112.037L123.793 111.606C122.494 110.862 121.194 110.118 119.923 109.435C118.624 108.69 117.269 107.823 115.948 106.867C114.906 106.117 113.897 105.279 112.96 104.518L112.258 103.948C111.907 103.663 111.556 103.377 111.16 103.075C110.575 102.6 110.018 102.186 109.432 101.711C107.181 99.8433 104.901 97.9143 102.649 96.0467L101.334 94.9396L101.696 95.3308C103.975 97.6672 106.315 99.9758 108.656 102.284C109.179 102.788 109.703 103.291 110.227 103.794L110.896 104.453L111.726 105.225C112.411 105.84 113.035 106.483 113.721 107.098C113.91 107.271 114.1 107.444 114.334 107.634L114.568 107.824C114.964 108.126 115.387 108.49 115.783 108.792C116.575 109.396 117.4 109.911 118.27 110.442C118.933 110.845 119.641 111.265 120.305 111.668C121.765 112.524 123.226 113.38 124.704 114.192C125.546 114.662 126.388 115.132 127.219 115.496C127.871 115.793 128.54 116.045 129.227 116.253C129.851 116.488 130.509 116.634 131.212 116.797C132.244 117.033 133.293 117.225 134.058 117.36C133.996 117.795 133.95 118.186 133.905 118.576L133.826 119.056C133.798 119.402 133.769 119.748 133.741 120.094C133.699 121.556 133.775 123.113 133.996 124.827L133.75 124.938ZM170.77 259.546C170.077 260.304 169.367 261.107 168.702 261.926L167.846 262.979C167.147 263.888 166.465 264.752 165.721 265.643C165.151 266.346 164.597 267.003 163.982 267.689C163.697 268.04 163.35 268.419 162.976 268.736L162.568 269.143C162.16 269.55 161.657 270.073 161.098 270.474C160.523 270.92 160.042 271.248 159.562 271.577C159.115 271.816 158.685 272.011 158.238 272.25C157.763 272.428 157.227 272.633 156.54 272.833C156.205 272.91 155.932 272.96 155.597 273.038C155.385 273.06 155.173 273.082 154.977 273.059C154.676 273.048 154.375 273.036 154.029 273.007C153.024 272.833 152.037 272.613 151.066 272.35C150.709 272.215 150.364 272.187 149.99 272.097C149.376 271.967 148.779 271.793 148.165 271.664C147.552 271.535 146.955 271.361 146.341 271.231C144.952 270.861 143.731 270.452 142.526 269.998C141.338 269.499 140.184 268.911 139.002 268.262L139.046 268.279L138.957 268.245L138.778 268.178C138.321 267.903 137.909 267.646 137.496 267.389C136.376 266.712 135.316 266.007 134.212 265.285C132.256 263.987 130.254 262.673 128.141 261.519C126.323 260.529 124.812 259.806 123.35 259.358C122.369 258.988 121.381 258.768 120.394 258.549C119.54 258.38 118.67 258.256 117.844 258.149L117.71 258.098C116.449 257.929 115.11 257.832 113.832 257.707C113.291 257.656 112.794 257.622 112.253 257.57C111.26 257.502 110.283 257.389 109.262 257.259C108.437 257.151 107.639 257.105 106.813 256.998C104.692 256.81 102.99 256.729 101.416 256.85C100.78 256.916 100.099 256.965 99.4628 257.031C98.2516 257.135 96.9789 257.267 95.7398 257.309C94.7744 257.302 93.8258 257.25 92.7433 257.148C91.1978 256.922 89.8029 256.702 88.4416 256.393C87.9508 256.208 87.471 256.129 87.0248 255.961C86.5786 255.793 86.1493 255.58 85.7646 255.384C85.469 255.222 85.2349 255.032 84.9393 254.87C84.5436 254.568 84.1647 254.221 83.7411 253.858C83.2897 253.433 82.8998 252.98 82.482 252.466C81.2456 250.879 80.1153 249.281 79.08 247.566C78.7127 246.918 78.4068 246.243 78.1288 245.628C77.5339 244.232 77.0339 242.719 76.4397 240.915L76.4009 240.748C76.2677 240.29 76.1792 239.849 76.046 239.391C75.9574 238.95 75.8965 238.571 75.808 238.13C75.7698 237.555 75.7148 237.024 75.7213 236.466C75.7277 235.908 75.7621 235.412 75.8132 234.871C75.8416 234.525 75.9314 234.151 75.9599 233.805C76.0556 233.281 76.1068 232.739 76.141 232.243C76.2542 231.266 76.1275 230.25 75.8332 229.273C75.5668 228.358 75.1219 227.375 74.4151 226.14C73.5357 224.688 72.6006 223.113 71.4593 221.409C70.3347 219.66 69.3493 218.219 68.4194 216.9L67.9181 216.202C67.545 215.705 67.1887 215.163 66.8156 214.665C66.3313 213.922 65.8469 213.179 65.3625 212.436C65.1511 212.051 64.9118 211.604 64.7172 211.174C64.3447 210.269 64.0337 209.337 63.7007 208.192C63.5733 207.584 63.446 206.975 63.3186 206.367C63.2358 205.775 63.1975 205.2 63.204 204.642C63.2156 204.341 63.2273 204.04 63.239 203.738C63.239 203.738 63.239 203.738 63.2836 203.755C63.6406 203.89 63.9975 204.024 64.3881 204.069L64.5219 204.12L65.1356 204.249L65.7494 204.379C66.9599 204.682 68.2933 204.93 69.9113 205.234C70.9602 205.425 72.0259 205.572 73.0916 205.719C74.877 205.984 76.7685 206.238 78.5481 206.654C79.9371 207.025 81.2033 207.451 82.408 207.905L82.3188 207.871C82.3188 207.871 82.3634 207.888 82.408 207.905C82.408 207.905 82.3634 207.888 82.3188 207.871C82.3188 207.871 82.4972 207.938 82.631 207.989C83.0772 208.157 83.5067 208.37 83.8914 208.566C84.2594 208.806 84.5995 208.985 84.9229 209.209C85.157 209.399 85.3911 209.589 85.5806 209.763C85.7701 209.936 85.9873 210.171 86.16 210.389C86.3605 210.668 86.6055 210.964 86.7892 211.288C87.8245 213.003 88.6308 214.785 89.2813 216.304C89.5704 217.024 89.8316 217.683 90.1097 218.297C90.6878 219.738 91.3273 221.151 91.9669 222.564C92.8566 224.53 93.925 226.563 95.1549 228.708C96.0732 230.328 97.1589 231.909 98.2614 233.445C99.4086 234.998 100.717 236.664 102.244 238.156C103.715 239.526 105.438 240.633 106.954 241.612C108.443 242.53 110.077 243.604 111.744 244.589C113.545 245.625 115.335 246.554 116.757 247.243C118.77 248.256 120.476 249.001 122.345 249.45C123.974 249.86 125.904 250.282 127.852 250.252C128.923 250.248 129.8 250.221 130.631 250.178L131.312 250.129C131.887 250.091 132.507 250.07 133.126 250.048L133.383 250.043L133.924 250.094L134.236 250.212L134.538 250.224C134.583 250.24 134.627 250.257 134.716 250.291L134.939 250.375C134.939 250.375 135.201 250.627 135.346 250.783C135.491 250.94 135.636 251.096 135.736 251.236C136.209 251.873 136.666 252.554 137.078 253.219C137.434 253.761 137.791 254.303 138.147 254.845C139.149 256.241 140.012 257.331 140.943 258.242C142.631 259.847 144.108 261.066 145.636 262.151C147.18 263.191 148.775 264.098 150.42 264.871C151.295 265.252 152.205 265.543 153.175 265.807C154.191 266.088 155.228 266.173 156.071 266.236C157.455 266.35 159.035 266.079 160.581 265.49C161.224 265.273 161.838 264.995 162.452 264.717C162.759 264.578 163.005 264.467 163.268 264.311C164.854 263.482 166.346 262.363 167.776 261.271L167.81 261.182L168.195 260.971C168.832 260.497 169.408 260.052 170.089 259.595C170.352 259.44 170.615 259.284 170.832 259.111L170.972 259.011C170.972 259.011 170.972 259.011 170.955 259.056C170.955 259.056 170.972 259.011 171.034 258.983C170.86 259.173 170.642 259.345 170.469 259.535L170.77 259.546ZM179.689 165.026C180.122 166.31 180.555 167.594 180.944 168.861C181.171 169.61 181.443 170.375 181.716 171.14C181.905 171.72 182.138 172.318 182.31 172.943C182.754 174.333 183.199 175.724 183.598 177.097C184.048 178.744 184.425 180.313 184.802 181.882L184.979 182.764C185.3 184.21 185.622 185.655 185.943 187.101C186.081 187.816 186.192 188.469 186.33 189.184C186.518 190.172 186.707 191.16 186.895 192.148C187.094 193.242 187.276 194.381 187.476 195.475C187.558 196.066 187.658 196.614 187.741 197.205L187.818 197.948L187.916 198.902L187.971 199.432C188.004 199.75 188.082 200.085 188.053 200.431L188.129 201.988L188.173 202.413L188.217 202.837C188.25 203.155 188.238 203.456 188.271 203.774L188.283 206.989C188.275 208.769 188.194 210.471 188.09 212.368L188.067 212.971C188.027 213.618 188.004 214.221 187.964 214.868L187.895 215.861C187.838 216.553 187.798 217.201 187.741 217.893L187.458 220.13C187.198 222.172 186.715 224.13 186.356 225.625C185.895 227.388 185.429 229.301 185.052 231.248C184.704 232.849 184.444 234.484 184.219 236.029L184.111 236.855C184.027 237.485 183.914 238.055 183.785 238.668L183.599 239.566C183.487 240.135 183.374 240.705 183.217 241.257C183.116 241.524 183.06 241.809 183.003 242.093C182.672 243.242 182.33 244.285 181.943 245.312C181.658 246.07 181.283 246.795 180.908 247.52C180.488 248.228 180.051 248.981 179.526 249.7C179.246 249.9 178.995 250.162 178.715 250.363L178.682 250.452C177.967 250.997 177.357 251.532 176.703 252.05L175.972 252.64C175.301 253.203 174.569 253.793 173.809 254.322C173.049 254.851 172.262 255.319 171.474 255.786L170.748 256.226L170.887 256.126C170.485 256.382 170.1 256.593 169.653 256.832C168.943 257.227 168.234 257.623 167.553 258.079L167.212 258.307L164.474 260.027L164.352 260.083C163.826 260.395 163.257 260.689 162.748 260.956C162.134 261.234 161.369 261.507 160.604 261.779C160.375 261.845 160.146 261.912 159.917 261.979C159.873 261.962 159.811 261.99 159.75 262.017C159.353 262.123 158.929 262.167 158.533 262.272C158.276 262.277 158.003 262.327 157.746 262.332C157.489 262.337 157.249 262.298 156.993 262.303C156.513 262.224 156.077 262.162 155.614 262.039C155.062 261.881 154.51 261.724 153.958 261.567C153.288 261.315 152.653 260.973 151.928 260.598C150.763 259.904 149.731 259.261 148.717 258.573C147.719 257.84 146.71 257.002 145.807 256.152C144.949 255.319 144.253 254.598 143.59 253.788C142.844 252.793 142.214 251.894 141.63 251.011L141.519 250.765C141.051 249.977 140.556 249.128 139.999 248.307C138.64 246.368 136.801 245.166 134.714 244.889C133.559 244.708 132.426 244.74 131.293 244.772C130.478 244.77 129.646 244.814 128.832 244.812C127.972 244.794 127.068 244.759 126.242 244.652C125.177 244.505 124.145 244.269 123.051 244.061C122.32 243.836 121.59 243.612 120.742 243.292C118.723 242.43 116.755 241.433 114.831 240.453C114.892 240.426 115.015 240.37 115.077 240.342C115.523 240.103 115.97 239.864 116.389 239.563C116.993 239.179 117.579 238.839 118.138 238.438C119.082 237.826 120.009 237.258 120.909 236.629C121.948 235.9 123.004 235.126 124.06 234.352C125.256 233.478 126.407 232.587 127.619 231.668C125.335 232.998 123.005 234.311 120.721 235.641C119.855 236.181 118.961 236.66 118.067 237.138C116.587 237.956 115.196 238.808 113.688 239.564C113.565 239.62 113.504 239.648 113.381 239.703C113.381 239.703 113.292 239.67 113.247 239.653C110.811 238.276 108.435 236.871 106.217 235.322C105.676 234.863 105.091 234.388 104.522 233.868C103.826 233.147 103.146 232.381 102.355 231.37C100.902 229.548 99.6156 227.688 98.4354 225.817C97.2165 223.778 96.1036 221.728 94.952 219.51C94.4624 218.511 93.9728 217.511 93.4833 216.511C92.9382 215.389 92.3485 214.249 91.7587 213.11C91.3526 212.294 90.8851 211.507 90.4176 210.719C89.6383 209.407 88.7252 208.043 87.4655 207.059C85.8101 205.773 83.8081 204.866 81.0301 204.124C79.3733 203.653 77.5432 203.371 75.4843 203.156L73.6652 202.98C72.3428 202.838 71.0035 202.741 69.6811 202.599C67.8343 202.362 66.1102 202.069 64.5091 201.72L64.5537 201.737C64.4645 201.703 64.3306 201.653 64.2413 201.619C64.0629 201.552 63.9627 201.412 63.7842 201.345L63.8799 200.821C64.0706 200.179 64.2446 199.582 64.48 198.958C64.6818 198.422 64.9449 197.859 65.1913 197.341C65.5159 196.749 65.807 196.248 66.1258 195.807C66.3327 195.529 66.601 195.222 66.8526 194.96C67.0259 194.771 67.227 194.643 67.4003 194.453C67.6797 194.253 67.959 194.052 68.2384 193.852C68.7467 193.585 69.2996 193.335 69.8078 193.068L69.9921 192.984C70.8968 192.612 71.863 192.212 72.7955 191.901C73.8062 191.517 74.8448 191.195 75.9279 190.89C76.8268 190.668 77.6642 190.474 78.5631 190.253C80.1934 189.848 81.9128 189.477 83.5321 188.966C84.6935 188.588 85.8885 188.122 87.0389 187.638C87.5304 187.416 88.0497 187.255 88.5412 187.032C90.4398 186.321 92.2155 185.665 93.9409 185.144L94.2927 185.021C95.9733 184.483 97.7154 183.916 99.3683 183.316C100.837 182.8 102.4 182.166 104.165 181.404L104.288 181.349C104.288 181.349 104.35 181.321 104.411 181.293C105.025 181.015 105.64 180.737 106.254 180.459C106.868 180.181 107.483 179.903 108.114 179.58C109.236 179.035 110.393 178.401 111.917 177.6C115.185 175.825 118.425 173.989 121.648 172.197C124.424 170.645 127.977 168.519 131.156 165.895C132.542 164.787 133.979 163.545 135.359 162.18C136.662 160.887 137.97 159.444 139.434 157.856C140.681 156.44 141.911 155.07 143.007 153.648C143.628 152.812 144.182 152.155 144.68 151.374L145.11 150.772C145.446 150.287 145.782 149.802 146.117 149.317C146.117 149.317 146.162 149.334 146.206 149.351C147.956 150.927 149.863 152.359 151.792 153.596C152.16 153.836 152.572 154.094 152.94 154.334L152.397 155.505L152.005 156.275C151.613 157.044 151.221 157.814 150.785 158.566L150.247 159.587C149.503 160.886 148.742 162.23 147.875 163.584C146.571 165.692 145.189 167.871 143.634 170.241C142.19 172.448 140.926 174.316 139.634 176.122C139.03 176.913 138.426 177.704 137.85 178.557C137.85 178.557 137.833 178.602 137.816 178.647C137.816 178.647 137.816 178.647 137.799 178.691C137.799 178.691 137.799 178.691 137.816 178.647C137.783 178.736 137.643 178.836 137.609 178.925L137.324 179.276L136.788 179.889L136.502 180.24C136.295 180.519 136.105 180.753 135.871 180.97L134.814 182.152L133.757 183.333L133.003 184.119C132.499 184.643 132.013 185.122 131.51 185.646L130.616 186.531C130.051 187.083 129.503 187.59 128.939 188.142L127.469 189.473L126.044 190.821C125.669 191.138 125.339 191.473 124.965 191.79L123.484 193.016C122.909 193.461 122.288 193.89 121.696 194.38C121.54 194.525 121.355 194.608 121.216 194.708L121.015 194.836C120.691 195.02 120.394 195.265 120.07 195.449L119.607 195.733C119.16 195.972 118.696 196.256 118.249 196.495C117.479 196.918 116.663 197.324 115.848 197.73C117.026 197.308 118.266 196.858 119.522 196.363C119.829 196.224 120.12 196.13 120.365 196.018C120.55 195.935 120.628 195.863 120.734 195.852L120.997 195.696L121.32 195.512C121.689 195.345 122.013 195.162 122.398 194.95L123.203 194.438L124.13 193.87C124.516 193.659 124.856 193.431 125.214 193.158L125.695 192.83C126.533 192.228 127.371 191.627 128.321 190.864C130.282 189.31 132.321 187.684 134.244 185.962L134.635 185.6C134.932 185.355 135.228 185.11 135.479 184.848L136.703 183.628L137.19 183.149C138.006 182.336 138.749 181.444 139.521 180.614L139.806 180.263C140.058 180.001 140.281 179.677 140.488 179.399L140.79 179.003L141.092 178.607C141.378 178.256 141.618 177.888 141.886 177.582L142.283 177.069C142.887 176.278 143.464 175.425 144.023 174.616C145.321 172.66 146.815 170.318 148.247 168.005C148.924 166.884 149.618 165.719 150.251 164.581L150.351 164.314C150.637 163.963 150.849 163.533 151.045 163.148L151.387 162.513L152.154 161.018C152.35 160.634 152.562 160.204 152.758 159.82L152.826 159.641L153.055 159.167C153.206 158.766 153.447 158.398 153.598 157.996L154.019 156.881L154.573 155.816L154.691 155.503C154.78 155.537 154.869 155.571 154.941 155.649C156.257 156.349 157.635 157.021 159.146 157.743L159.012 158.1L158.899 158.669L158.714 159.16C158.585 159.773 158.411 160.37 158.32 161.151C158.219 161.826 158.117 162.502 158.032 163.132C157.671 165.849 157.478 168.12 157.441 170.246C158.421 167.915 159.139 165.74 159.84 163.609C160.064 162.879 160.272 162.192 160.452 161.445C160.648 160.653 160.934 159.894 161.158 159.164L161.327 158.717C161.327 158.717 161.327 158.718 161.343 158.673C162.621 159.205 163.853 159.721 165.13 160.253C166.826 160.892 168.477 161.514 170.083 162.119C170.083 162.119 170.11 162.588 170.115 162.845C170.108 163.81 170.084 164.82 170.06 165.83L170.036 166.84C170.013 167.85 169.972 168.905 169.948 169.915C169.93 170.367 169.896 170.864 169.923 171.332L169.86 172.582C169.865 172.839 169.87 173.096 169.814 173.38L169.802 173.682L169.796 174.24C169.795 174.647 169.767 174.993 169.722 175.384C169.665 175.668 169.609 175.953 169.57 176.193C169.48 176.566 169.406 176.896 169.361 177.286L169.254 178.112L169.203 178.653C169.152 179.194 169.073 179.674 169.022 180.215L168.925 181.147C168.818 181.973 168.772 182.771 168.682 183.552L168.664 184.004C168.624 184.651 168.567 185.343 168.527 185.99L168.492 186.894C168.4 188.49 168.308 190.086 168.261 191.699L168.198 192.949C168.833 190.182 169.423 187.398 170.058 184.631C170.311 183.555 170.519 182.461 170.772 181.384C170.913 180.877 171.025 180.308 171.121 179.783C171.334 178.947 171.486 178.138 171.7 177.301L171.767 177.123C171.941 176.526 172.087 175.867 172.127 175.22C172.111 174.857 172.156 174.467 172.14 174.104C172.147 173.546 172.198 173.005 172.204 172.447L172.274 170.639L172.344 168.831C172.406 167.988 172.408 167.173 172.47 166.331L172.483 165.622C172.54 164.93 172.552 164.222 172.564 163.513C172.57 163.362 172.576 163.211 172.565 163.105C172.788 163.189 173.056 163.29 173.296 163.33C175.415 163.925 177.39 164.363 179.237 164.601L179.498 165.26L179.689 165.026ZM276.837 240.003L276.089 240.23C275.525 240.375 274.978 240.474 274.414 240.618C273.928 240.69 273.415 240.7 272.929 240.772C272.07 240.754 271.121 240.702 270.145 240.589C268.928 240.436 267.745 240.194 266.473 239.919C264.861 239.464 263.4 239.016 261.972 238.477C260.695 237.945 259.513 237.296 258.286 236.63C257.444 236.16 256.468 235.639 255.392 235.386C253.869 234.965 252.273 234.873 250.71 235.1C248.555 235.409 246.417 236.08 244.367 236.786C243.664 237.03 242.977 237.23 242.29 237.43C241.224 237.69 240.219 237.923 239.248 238.067C238.187 238.176 237.082 238.269 236.011 238.273C235.665 238.245 235.257 238.244 234.911 238.216C234.671 238.176 234.431 238.137 234.191 238.097C234.102 238.064 234.013 238.03 233.924 237.996C233.656 237.896 233.344 237.778 233.109 237.588C231.37 236.525 229.681 235.328 228.064 234.209C227.184 233.571 226.375 233.012 225.55 232.497C224.786 231.955 223.961 231.44 223.198 230.897C222.317 230.26 221.514 229.55 220.639 228.761C219.681 227.789 218.739 226.772 217.759 225.587C216.84 224.374 216.038 223.257 215.343 222.129C214.792 221.157 214.285 220.201 213.774 218.99C210.91 212.255 208.092 205.537 205.211 198.846L204.589 197.389C203.065 193.86 201.531 190.224 199.795 186.717L199.389 185.901C198.621 184.287 197.826 182.612 196.952 181.009C195.856 178.914 194.827 177.048 193.719 175.255L193.664 175.132C192.483 173.261 191.08 171.306 189.147 168.998C188.367 168.092 187.604 167.142 186.825 166.237L186.569 165.427L186.519 165.154L186.414 164.758L186.883 164.73C186.866 164.775 186.804 164.803 186.788 164.847C186.653 165.204 186.697 165.628 187.02 165.852C187.327 166.121 187.678 166.406 188.147 166.379C188.236 166.412 188.404 166.374 188.482 166.301C188.482 166.301 188.605 166.246 188.622 166.201C188.962 166.38 189.213 166.525 189.463 166.671C189.759 166.833 190.01 166.979 190.305 167.141C191.309 167.723 192.413 168.445 193.617 169.306C193.985 169.547 194.291 169.815 194.598 170.084C194.96 170.475 195.322 170.866 195.667 171.302C196.258 172.034 196.753 172.883 197.221 173.671L197.377 173.933C198.534 176 199.535 178.211 200.481 180.3C201.037 181.529 201.621 182.819 202.238 184.02C203.662 187.002 205.192 189.973 206.8 192.872C208.253 195.509 209.962 198.14 211.945 200.721L212.318 201.219C212.691 201.716 213.064 202.213 213.454 202.666L213.972 203.32C214.317 203.756 214.662 204.191 215.052 204.644L215.559 205.192C215.994 205.661 216.384 206.114 216.774 206.567C217.164 207.019 217.571 207.427 218.039 207.807L218.49 208.232C220.089 209.803 221.734 210.983 223.368 211.65C225.074 212.395 227.027 212.621 229.237 212.435C230.572 212.276 231.878 212.055 233.279 211.716C233.614 211.639 233.949 211.561 234.239 211.467C234.971 211.284 235.702 211.101 236.506 210.996C236.869 210.98 237.204 210.902 237.567 210.886C237.762 210.909 237.974 210.887 238.169 210.91C238.409 210.949 238.649 210.988 238.889 211.028C239.157 211.129 239.424 211.23 239.737 211.347C240.049 211.465 240.361 211.583 240.64 211.79C240.98 211.969 241.304 212.193 241.627 212.416C242.023 212.718 242.402 213.065 242.781 213.412C243.187 213.82 243.55 214.211 243.939 214.664C244.658 215.597 245.27 216.541 245.838 217.468C245.838 217.468 245.838 217.468 245.866 217.53C245.949 217.714 246.05 217.853 246.178 218.055L246.517 218.641C247.179 219.859 247.903 221.049 248.626 222.238C248.994 222.886 249.422 223.507 249.868 224.082L249.968 224.222C250.397 224.842 250.826 225.462 251.271 226.038C251.544 226.395 251.862 226.77 252.151 227.083C252.324 227.301 252.513 227.474 252.703 227.647L252.965 227.899C253.472 228.446 254.04 228.966 254.709 229.626C255.729 230.571 257.055 231.784 258.487 232.986C259.641 233.981 260.873 234.904 262.3 235.85C264.948 237.612 267.764 238.928 270.693 239.675C272.037 240.029 273.086 240.22 274.141 240.261C275.09 240.312 275.983 240.241 276.848 240.109L276.837 240.003ZM230.227 152.072C231.894 152.649 233.579 153.182 235.13 153.664C238.32 154.663 241.613 154.986 244.9 154.646C247.021 154.426 249.221 154.134 251.576 153.697C253.977 153.277 256.093 152.8 258.047 152.212C258.856 151.956 259.666 151.701 260.476 151.446C261.743 151.057 263.072 150.641 264.34 150.252L264.295 150.235C264.295 150.235 264.34 150.252 264.384 150.269C264.384 150.269 264.339 150.252 264.278 150.28C265.088 150.024 265.925 149.83 266.763 149.637C269.627 148.932 272.513 148.44 275.276 148.004C276.504 147.855 277.654 147.779 278.787 147.748C279.691 147.782 280.595 147.817 281.499 147.852C282.643 147.927 283.759 147.94 284.92 147.97C286.594 147.989 288.268 148.009 289.914 147.967L291.181 147.985C293.068 147.983 294.999 147.997 296.885 147.995C299.223 148.01 301.561 148.025 303.855 148.023C304.971 148.036 305.875 148.071 306.763 148.15C307.332 148.263 307.918 148.331 308.487 148.443C308.933 148.611 309.396 148.735 309.859 148.858C310.26 149.01 310.662 149.161 311.002 149.34C311.298 149.502 311.593 149.665 311.872 149.872C312.078 150 312.223 150.157 312.412 150.33C312.602 150.504 312.775 150.721 312.919 150.878C313.092 151.096 313.22 151.297 313.348 151.498C313.476 151.699 313.56 151.884 313.643 152.068C313.737 152.358 313.849 152.604 313.943 152.894C314.06 153.397 314.159 153.944 314.275 154.446C314.319 154.87 314.347 155.339 314.391 155.763C314.378 156.472 314.366 157.181 314.275 157.962C314.123 159.178 313.864 160.406 313.527 161.705C313.146 162.988 312.736 164.21 312.299 165.37C310.837 168.844 309.135 172.279 307.377 175.591L307.327 175.725C306.197 177.643 305.094 179.622 304.527 181.803C304.246 182.818 303.943 184.029 303.701 185.212C303.504 186.411 303.323 187.566 303.199 188.844C303.012 190.557 303.02 192.292 303.045 193.983L303.054 195.311C303.04 197.242 302.975 199.307 302.871 201.612C302.791 202.906 302.728 204.156 302.603 205.434C302.523 206.321 302.488 207.225 302.409 208.112L302.375 208.609C302.254 210.551 302.145 212.599 301.902 214.596C301.8 215.271 301.688 215.84 301.558 216.454C301.222 217.754 300.689 219.031 300.252 220.191L300.235 220.235L299.9 220.72L299.503 221.233C299.139 221.657 298.804 222.142 298.44 222.565C298.25 222.799 298.077 222.989 297.887 223.223L297.523 223.646C297.272 223.908 297.037 224.125 296.83 224.404L296.422 224.811C296.014 225.218 295.623 225.58 295.231 225.942L295.058 226.131C295.058 226.131 295.058 226.131 295.041 226.176C293.974 226.844 293.181 227.462 292.521 228.131C292.208 228.42 291.968 228.788 291.699 229.095C291.587 229.256 291.414 229.446 291.302 229.607C290.939 230.031 290.575 230.454 290.167 230.861C289.698 231.296 289.228 231.73 288.759 232.165C288.384 232.482 288.044 232.71 287.747 232.955C287.407 233.184 287.066 233.412 286.725 233.64L286.585 233.741C284.982 234.614 283.519 235.387 282.167 235.999L281.922 236.11L281.966 236.127L281.983 236.082C281.983 236.082 281.693 236.177 281.508 236.26C280.911 236.494 280.224 236.694 279.521 236.938C278.56 237.187 277.678 237.365 276.752 237.525C276.372 237.586 276.009 237.602 275.602 237.601C274.999 237.578 274.441 237.571 273.9 237.52C273.269 237.436 272.656 237.306 272.103 237.149C271.389 236.88 270.642 236.7 269.928 236.431L269.749 236.364C269.437 236.246 269.08 236.112 268.768 235.994L268.813 236.011C268.813 236.011 268.812 236.011 268.768 235.994C268.768 235.994 268.768 235.994 268.813 236.011C268.813 236.011 268.589 235.927 268.5 235.893C267.965 235.691 267.374 235.367 266.872 235.076L266.56 234.958C265.411 234.22 264.263 233.481 263.086 232.681L262.763 232.457C262.367 232.155 261.927 231.836 261.548 231.49C260.963 231.014 260.394 230.495 259.809 230.019C258.772 229.119 257.797 228.191 256.805 227.308L256.543 227.056C256.092 226.631 255.641 226.207 255.206 225.737L254.989 225.502C254.799 225.329 254.627 225.111 254.454 224.893L254.109 224.457L253.763 224.022L253.49 223.664C253.017 223.027 252.544 222.39 252.115 221.77C251.586 221.01 251.102 220.267 250.59 219.463C250.278 218.937 249.938 218.351 249.627 217.826C249.187 217.1 248.764 216.329 248.324 215.603C247.389 214.027 246.393 212.48 245.1 211.178C243.284 209.372 241.472 208.231 239.514 207.748C237.706 207.27 235.903 207.457 233.715 207.855C232.894 208.005 232.074 208.154 231.27 208.259C230.343 208.419 229.512 208.462 228.697 208.461C228.139 208.454 227.642 208.42 227.101 208.369C226.71 208.324 226.381 208.251 226.007 208.161C225.74 208.06 225.427 207.942 225.16 207.841C224.847 207.724 224.552 207.561 224.301 207.416C223.933 207.175 223.565 206.935 223.197 206.694C222.64 206.28 222.099 205.822 221.486 205.285L220.745 204.547L220.004 203.809C219.714 203.496 219.38 203.167 219.09 202.854L218.773 202.479C218.048 201.697 217.313 200.808 216.388 199.746L214.834 197.785C213.28 195.824 211.866 193.762 210.402 191.427C208.799 188.785 207.558 186.534 206.418 184.423C205.616 182.898 204.815 181.373 204.059 179.865L203.514 178.742C203.007 177.787 202.518 176.788 201.994 175.877L201.811 175.553C201.076 174.257 200.342 172.961 199.423 171.749C198.621 170.631 197.468 169.229 196.002 168.116C195.534 167.736 195.032 167.445 194.486 167.137L193.939 166.829C193.644 166.667 193.365 166.46 193.069 166.297C192.568 166.006 192.049 165.76 191.547 165.469C191.207 165.29 190.822 165.094 190.482 164.915C190.069 164.657 189.729 164.478 189.417 164.361C189.417 164.361 189.417 164.361 189.372 164.344C189.584 164.322 189.841 164.317 190.07 164.25C190.98 164.134 191.907 163.974 192.984 163.819C193.911 163.659 194.899 163.471 195.904 163.238L196.338 163.708C196.583 164.004 196.873 164.317 197.118 164.613L198.088 165.692L199.012 166.754C199.647 167.502 200.238 168.234 200.873 168.983L201.608 169.872L201.753 170.028C201.753 170.028 202.053 170.447 202.243 170.621C202.432 170.794 202.605 171.012 202.794 171.185L203.753 172.158C204.377 172.8 205.018 173.399 205.686 174.058C206.517 174.83 207.447 175.741 208.49 176.49C210.279 177.827 212.225 179.019 214.098 180.133L214.851 180.569C215.263 180.826 215.676 181.084 216.088 181.341C216.618 181.694 217.165 182.001 217.694 182.354C218.904 183.064 220.058 183.652 221.185 184.179C221.112 184.101 220.995 184.005 220.923 183.927L220.778 183.771C220.137 183.173 219.485 182.468 218.644 181.591L218.21 181.121C217.847 180.73 217.53 180.356 217.151 180.009C216.527 179.366 215.886 178.768 215.245 178.17C214.081 177.069 212.776 176.068 211.517 175.083C210.374 174.194 209.248 173.26 208.122 172.327L207.888 172.136C207.493 171.835 207.113 171.488 206.735 171.141L206.356 170.795C205.932 170.431 205.509 170.068 205.13 169.721C204.94 169.548 204.706 169.358 204.5 169.229C204.31 169.056 204.104 168.927 203.915 168.754C202.939 167.826 201.953 166.792 200.677 165.445L199.981 164.724C199.357 164.081 198.777 163.455 198.17 162.768C198.338 162.729 198.444 162.718 198.611 162.679C199.8 162.363 201.007 162.002 202.274 161.614L202.987 162.29C203.628 162.888 204.341 163.565 205.01 164.224C205.3 164.537 205.562 164.789 205.868 165.057L206.319 165.482L206.581 165.733C206.888 166.002 207.178 166.315 207.529 166.6L208.331 167.31L209.134 168.02C209.44 168.288 209.747 168.557 210.07 168.78L210.494 169.144C210.494 169.144 210.817 169.368 210.962 169.524L211.185 169.608L211.358 169.826C211.547 170 211.753 170.128 211.96 170.257L212.328 170.497C212.696 170.738 213.047 171.023 213.415 171.264C214.563 172.002 215.712 172.741 216.815 173.463C218.878 174.749 220.969 176.098 223.026 177.535C223.968 178.145 224.849 178.783 225.774 179.437C226.906 180.22 228.082 181.02 229.214 181.803L229.537 182.027C229.994 182.301 230.39 182.603 230.847 182.877L231.215 183.118L231.79 183.487C231.79 183.487 232.174 183.683 232.38 183.812L232.737 183.946C233.222 184.282 233.741 184.528 234.26 184.775L234.483 184.859C235.001 185.105 235.565 185.369 236.1 185.57L236.368 185.671L236.591 185.755L236.859 185.856L236.992 185.907L237.26 186.008L237.528 186.108C238.287 186.394 239.09 186.697 239.848 186.983L240.74 187.319C241.544 187.622 242.391 187.941 243.195 188.244L243.998 188.547L244.132 188.597L244.712 188.816C245.158 188.984 245.604 189.152 246.05 189.32C247.523 189.875 248.717 190.223 249.838 190.492C250.496 190.639 251.154 190.785 251.813 190.931C252.382 191.043 252.923 191.095 253.448 191.19L253.626 191.258C254.798 191.393 256.031 191.501 257.298 191.52C258.849 191.595 260.105 191.508 261.26 191.281C260.808 191.264 260.373 191.202 259.921 191.184C259.397 191.088 258.828 190.976 258.259 190.863C257.84 190.757 257.405 190.695 256.987 190.588L256.719 190.487L256.061 190.341L255.704 190.206L255.553 190.2L255.375 190.133C254.164 189.83 252.926 189.465 251.643 189.083C251.196 188.915 250.75 188.747 250.287 188.624L249.618 188.371C249.216 188.22 248.859 188.086 248.458 187.934L247.878 187.716C247.655 187.632 247.387 187.531 247.075 187.413L246.227 187.094C244.414 186.36 242.585 185.67 240.739 185.025C239.355 184.504 237.972 183.983 236.589 183.462L236.723 183.512L236.143 183.293C235.652 183.109 235.133 182.862 234.659 182.633C234.347 182.515 234.035 182.397 233.756 182.19L232.78 181.67L232.206 181.3L231.632 180.931C231.381 180.786 231.13 180.64 230.94 180.467L230.572 180.226C229.954 179.84 229.307 179.393 228.705 178.962L227.016 177.765C226.09 177.111 225.148 176.501 224.268 175.863C222.049 174.314 219.986 173.027 218.085 171.852L217.494 171.527C216.579 170.979 215.62 170.414 214.723 169.821C213.764 169.255 212.794 168.584 211.662 167.801L211.032 167.309L210.285 166.722C209.962 166.498 209.656 166.229 209.349 165.961L208.926 165.598C208.34 165.122 207.727 164.586 207.159 164.066L206.356 163.356L205.788 162.836C205.264 162.333 204.679 161.857 204.094 161.382L203.86 161.192C204.15 161.098 204.379 161.031 204.669 160.937C206.763 160.248 208.583 159.609 210.376 158.909C210.599 158.993 210.789 159.166 210.95 159.278C211.112 159.39 211.318 159.519 211.48 159.631L212.288 160.19L212.773 160.526C213.392 160.912 213.994 161.342 214.613 161.728L215.26 162.176L215.951 162.64C215.951 162.64 216.23 162.847 216.347 162.942L216.715 163.183C217.11 163.485 217.54 163.698 217.969 163.91C218.577 164.19 219.185 164.47 219.837 164.767L220.785 165.226C221.187 165.378 221.588 165.529 221.973 165.725L222.375 165.876L223.357 166.246C224.115 166.532 224.89 166.773 225.593 166.936C227.072 167.341 228.634 167.522 230.118 167.775L230.598 167.854L231.557 168.012L232.517 168.17C233.041 168.265 233.538 168.3 234.063 168.396L234.375 168.513C235.591 168.666 236.802 168.969 237.923 169.239C238.983 169.536 240.088 169.851 241.237 170.182C242.458 170.591 243.652 170.939 244.863 171.242C246.012 171.574 247.194 171.815 248.561 171.974C248.846 172.03 249.103 172.025 249.404 172.037L249.538 172.087L249.75 172.065C249.901 172.071 250.096 172.094 250.291 172.116C251 172.129 251.664 172.124 252.39 172.092C253.796 172.01 255.024 171.862 256.163 171.679C256.816 171.569 257.425 171.441 257.944 171.28C258.569 171.108 259.211 170.892 259.949 170.558C259.48 170.585 258.994 170.657 258.525 170.684C258.207 170.717 257.95 170.722 257.649 170.711L257.515 170.66L257.286 170.727C256.684 170.704 256.109 170.742 255.506 170.718L254.602 170.684C254.15 170.666 253.653 170.632 253.201 170.614L252.359 170.551C251.907 170.534 251.455 170.517 250.975 170.438C250.283 170.381 249.591 170.324 248.916 170.222C248.631 170.166 248.347 170.11 248.09 170.115L247.822 170.014C247.822 170.014 247.504 170.047 247.37 169.996L246.757 169.867L245.814 169.665L245.278 169.463C244.843 169.401 244.469 169.311 244.051 169.204C243.32 168.98 242.545 168.739 241.814 168.514C239.577 167.824 237.19 167.128 234.791 166.734L234.612 166.666C233.982 166.582 233.396 166.514 232.827 166.401L231.85 166.288L230.874 166.175L230.606 166.074C228.982 165.921 227.286 165.689 225.702 165.296C224.865 165.082 224.09 164.841 223.331 164.555L221.859 164L220.241 163.289L219.528 163.02C219.054 162.79 218.535 162.544 218.061 162.314C217.676 162.119 217.353 161.895 217.029 161.671L216.572 161.397L215.29 160.608L213.729 159.612L212.948 159.114C212.581 158.874 212.168 158.616 211.8 158.376C211.8 158.376 211.923 158.32 211.984 158.292L212.476 158.07C212.844 157.903 213.23 157.691 213.598 157.525C215.598 156.546 217.095 155.683 218.324 154.72C219.771 153.584 221.331 152.286 222.46 150.775C222.952 150.146 223.512 149.337 224.105 148.44C224.172 148.261 224.345 148.072 224.457 147.91L224.691 148.1C224.97 148.307 225.232 148.559 225.511 148.766C225.7 148.939 225.89 149.112 226.018 149.313C226.307 149.626 226.642 149.956 226.948 150.225C227.372 150.588 227.929 151.002 228.503 151.371C229.05 151.679 229.658 151.959 230.478 152.217L230.227 152.072ZM221.006 124.751C221.439 126.442 221.782 128.1 222.03 129.875C222.195 131.466 222.305 132.934 222.336 134.474C222.295 135.529 222.254 136.584 222.152 137.666C222.022 138.687 221.803 139.674 221.578 140.813C221.353 141.543 221.146 142.229 220.91 142.854C220.776 143.211 220.597 143.551 220.418 143.891C219.998 144.599 219.517 145.335 218.941 146.188L218.639 146.584L218.163 147.169C217.599 147.72 217.096 148.244 216.486 148.779C215.911 149.224 215.291 149.653 214.671 150.082C213.76 150.605 212.805 151.111 211.761 151.584C209.678 152.378 207.645 153.039 205.875 153.544C202.369 154.465 198.824 155.218 195.363 155.748C192.634 156.095 189.865 156.275 186.891 156.326C185.082 156.256 183.442 156.147 181.969 156C180.529 155.763 179.107 155.482 177.639 155.184C175.609 154.622 173.389 153.888 170.935 152.963C167.533 151.579 164.17 149.955 160.947 148.231C158.984 147.084 157.217 145.959 155.573 144.779C154.179 143.744 152.864 142.637 151.537 141.424C150.228 140.166 149.142 138.992 148.161 137.808C146.925 136.221 145.895 134.763 144.954 133.338C143.919 131.623 143.034 129.914 142.155 128.054C141.549 126.552 141.033 125.084 140.55 123.526C140.345 122.582 140.067 121.561 139.896 120.528C139.78 119.618 139.754 118.742 139.738 117.972C139.728 117.458 139.762 116.962 139.813 116.421C139.852 116.181 139.892 115.941 139.948 115.656C140.049 115.389 140.15 115.121 140.234 114.898C140.369 114.541 140.503 114.184 140.727 113.861C140.994 114.369 141.384 114.821 141.807 115.185C142.158 115.47 142.543 115.666 142.945 115.817C143.213 115.918 143.48 116.019 143.765 116.076C143.943 116.143 144.155 116.121 144.367 116.099C144.457 116.132 144.596 116.032 144.702 116.021C144.613 115.988 144.541 115.909 144.468 115.831C144.424 115.814 144.368 115.691 144.324 115.675C144.023 115.255 143.756 114.747 143.533 114.256C143.367 113.887 143.244 113.535 143.077 113.167C142.983 112.876 142.933 112.603 142.839 112.313C142.889 112.179 143.057 112.14 143.135 112.068C143.253 111.755 143.298 111.365 143.176 111.013L143.612 110.668C144.249 110.194 144.902 109.676 145.539 109.203C145.679 109.103 145.863 109.019 146.003 108.919C146.293 108.825 146.645 108.703 146.935 108.608L147.12 108.525C147.578 108.392 148.019 108.303 148.476 108.17C148.627 108.176 148.778 108.182 148.945 108.143C149.202 108.138 149.492 108.043 149.783 107.949C150.827 107.476 151.415 106.322 151.171 105.211C151.066 104.814 150.899 104.446 150.609 104.133C150.732 104.077 150.872 103.977 150.995 103.921C152.447 103.042 153.955 102.286 155.429 101.618L155.675 101.507C157.239 100.873 158.83 100.301 160.6 99.7964C162.538 99.2527 164.575 98.8486 166.624 98.5506C169.945 98.1207 173.31 98.115 176.33 98.0809L176.285 98.064C176.737 98.0815 177.189 98.099 177.703 98.0887C179.935 98.1146 182.256 98.1742 184.6 98.4458C186.731 98.7395 188.918 99.156 191.579 99.8021L192.461 100.032C192.461 100.032 192.371 99.9988 192.327 99.982C192.594 100.083 192.879 100.139 193.119 100.179C194.463 100.532 195.863 101.009 197.514 101.631C199.104 102.281 200.749 103.054 202.494 103.966C204.518 105.086 206.358 106.288 208.209 107.597C209.602 108.632 210.828 109.706 212.082 110.84C213.302 112.065 214.595 113.367 215.731 114.814L215.687 114.797C215.687 114.797 215.731 114.814 215.776 114.831L215.993 115.066L216.411 115.58C217.202 116.591 217.842 117.597 218.527 118.619C219.106 119.652 219.612 120.608 220.029 121.529C220.468 122.663 220.835 123.718 221.14 124.801L221.006 124.751ZM226.743 128.594L226.575 128.633C226.487 128.192 226.426 127.812 226.337 127.371C226.005 125.819 225.606 124.038 224.978 122.324C224.978 122.324 225.319 122.096 225.458 121.996C226.168 121.601 226.86 121.25 227.475 120.972L228.212 120.638L228.396 120.555C229.178 120.238 229.96 119.921 230.786 119.621C231.261 119.443 231.797 119.238 232.272 119.06L232.931 118.799C233.467 118.593 234.064 118.36 234.645 118.171C235.181 117.965 235.673 117.743 236.209 117.537L236.516 117.398C236.516 117.398 236.946 117.204 237.175 117.137C237.42 117.026 237.605 116.942 237.806 116.814C238.499 116.464 239.146 116.097 239.839 115.746C239.979 115.646 240.163 115.563 240.303 115.463L240.426 115.407C240.766 115.179 241.152 114.967 241.493 114.739C241.973 114.41 242.453 114.082 242.978 113.77C243.738 113.241 244.498 112.712 245.258 112.184L246.376 111.382C245.471 111.754 244.549 112.171 243.645 112.544L243.46 112.627C243.153 112.766 242.785 112.933 242.477 113.072C242.153 113.256 241.802 113.378 241.478 113.561C241.17 113.7 240.863 113.839 240.601 113.995L240.294 114.134L239.97 114.318C239.97 114.318 239.584 114.529 239.4 114.613L239.355 114.596C238.523 115.047 237.786 115.38 237.049 115.714C236.513 115.92 235.96 116.17 235.451 116.437C234.161 117.021 232.854 117.649 231.408 118.378L230.023 119.079L228.576 119.807L228.392 119.891C227.638 120.269 226.884 120.647 226.113 121.07L225.789 121.254C225.465 121.437 225.08 121.649 224.783 121.894C224.783 121.894 224.772 121.788 224.728 121.771C224.15 120.33 223.521 119.024 222.831 117.744C221.958 116.141 220.799 114.482 219.312 112.75C219.312 112.75 219.312 112.75 219.329 112.705C219.591 112.549 219.854 112.393 220.1 112.282C220.284 112.199 220.407 112.143 220.574 112.104C220.574 112.104 220.837 111.949 220.898 111.921L221.038 111.82C221.317 111.62 221.58 111.464 221.859 111.264C222.558 110.763 223.178 110.334 223.843 109.922C224.167 109.738 224.463 109.493 224.787 109.31C225.049 109.154 225.25 109.026 225.468 108.853C226.105 108.38 226.681 107.934 227.256 107.489L228.268 106.698C229.123 106.052 229.95 105.345 230.804 104.699C233.174 102.738 235.399 100.621 237.495 98.3032C239.167 96.4364 241.185 94.1907 242.969 91.7549C243.814 90.5955 244.614 89.4193 245.246 88.2819C245.828 87.2783 246.365 86.258 246.919 85.193L247.474 84.128C246.73 85.0197 245.925 85.9391 245.075 86.8418C244.354 87.5382 243.678 88.2514 242.99 88.8585C242.225 89.5381 241.398 90.2456 240.587 90.9084C240.23 91.1813 239.855 91.4987 239.498 91.7716L239.28 91.9442C237.771 93.108 235.81 94.6619 234.004 96.4782C233.362 97.1022 232.747 97.7877 232.148 98.4285L231.55 99.0692L231.047 99.593L229.409 101.371C228.559 102.273 227.682 103.114 226.832 104.017C226.346 104.496 225.815 104.958 225.329 105.438L224.529 106.207L224.138 106.569C223.808 106.903 223.479 107.237 223.166 107.527C222.819 107.906 222.428 108.268 222.036 108.63L221.567 109.065C221.271 109.31 220.958 109.599 220.662 109.844C220.209 110.234 219.818 110.596 219.365 110.986C219.086 111.187 218.806 111.387 218.527 111.588L218.404 111.643C218.404 111.643 218.404 111.643 218.387 111.688C218.098 111.375 217.78 111 217.49 110.687C217.039 110.263 216.649 109.81 216.242 109.402C213.891 106.987 211.065 104.75 207.664 102.552L207.135 102.199L207.185 102.065L207.325 101.965C207.615 101.871 207.889 101.821 208.162 101.771C208.347 101.688 208.397 101.554 208.341 101.431C208.286 101.308 208.186 101.168 208.035 101.163C208.035 101.163 208.035 101.163 208.052 101.118C208.102 100.984 208.225 100.929 208.32 100.812C209.013 100.054 209.813 99.2849 210.612 98.5161C210.925 98.2264 211.193 97.9199 211.489 97.6748C211.897 97.2681 212.35 96.8782 212.758 96.4715C214.295 94.9617 215.849 93.4073 217.487 91.6297L217.437 91.7636C217.661 91.4403 217.946 91.0892 218.259 90.7995L218.449 90.5653L218.717 90.2588C218.952 90.0416 219.142 89.8075 219.349 89.5288L219.964 88.8434C220.406 88.3475 220.847 87.8515 221.228 87.3834L221.859 86.6533L222.491 85.9233C222.681 85.6892 222.888 85.4105 223.078 85.1764L223.285 84.8978L223.492 84.6191C223.699 84.3404 223.923 84.0171 224.13 83.7384C224.482 83.2088 224.818 82.7238 225.17 82.1942C225.825 81.2689 226.39 80.3099 227.067 79.1893C227.694 78.2026 228.292 77.1545 228.891 76.1063L229.652 74.7625C230.705 72.9171 231.835 70.9993 232.831 69.0309C234.153 66.4716 235.11 64.3358 235.895 62.3895C236.416 61.0063 236.887 59.7571 237.358 58.5078C237.66 57.7047 237.874 56.8679 238.115 56.0926C238.283 55.6464 238.362 55.1666 238.513 54.765L238.273 55.1329C237.887 55.7518 237.5 56.3706 237.07 56.9726C236.622 57.6192 236.192 58.2211 235.744 58.8677L234.9 60.0271C234.564 60.5121 234.262 60.9079 233.96 61.3036C233.563 61.8164 233.261 62.2121 232.942 62.6524L232.992 62.5186C231.969 64.0181 230.962 65.4731 230.033 66.8555C229.2 68.121 228.377 69.4924 227.532 71.0592C226.541 72.8768 225.506 74.6777 224.515 76.4954L224.414 76.7631L224.045 77.3373L223.687 78.0176L223.603 78.2406L223.491 78.4023L223.424 78.5808C223.133 79.0826 222.842 79.5843 222.534 80.1307L222.209 80.7217C221.935 81.1788 221.661 81.6361 221.387 82.0933L221.017 82.6674C220.743 83.1245 220.408 83.6095 220.089 84.0499L219.641 84.6965C219.323 85.1368 218.987 85.6218 218.668 86.0621C218.495 86.2516 218.288 86.5304 218.098 86.7645C217.348 87.8068 216.537 88.8768 215.699 89.8856C213.937 92.1261 212.494 93.9264 211.147 95.6095L210.498 96.3841C209.85 97.1588 209.218 97.8888 208.614 98.6802L208.027 99.4271L207.439 100.174L207.215 100.497C206.913 100.893 206.55 101.316 206.321 101.79C206.321 101.79 206.287 101.88 206.27 101.924C204.988 101.135 203.661 100.33 202.328 99.6745C201.129 99.0699 199.941 98.5712 198.826 98.1509C198.067 97.865 197.309 97.5792 196.55 97.2933C196.612 97.2655 196.673 97.2378 196.751 97.1654C197.153 96.9093 197.573 96.6087 197.947 96.2912C198.461 95.8735 199.009 95.3665 199.529 94.7981C199.624 94.6811 199.719 94.5641 199.859 94.4638C200.032 94.2744 200.267 94.0571 200.395 93.8508C200.887 93.221 201.379 92.5911 201.872 91.9613C202.811 90.6849 203.634 89.3135 204.384 87.8637C205.168 86.3248 205.873 84.8583 206.5 83.4641C207.049 82.1424 207.615 80.7761 208.12 79.4376L208.271 79.0361C208.776 77.6975 209.302 76.571 209.795 75.5338C210.338 74.3628 210.987 73.1808 211.491 72.2496L211.457 72.3388C211.457 72.3388 211.474 72.2942 211.491 72.2496C211.491 72.2496 211.474 72.2942 211.457 72.3388C211.457 72.3388 211.541 72.1158 211.62 72.0434L211.737 71.7311C212.347 70.7889 212.868 69.8132 213.371 68.8821C213.942 67.7725 214.452 66.6906 214.967 65.4582C215.22 64.7889 215.533 64.0919 215.83 63.4394C216.435 61.8332 217.13 60.2606 217.93 58.677C218.126 58.2923 218.367 57.9243 218.591 57.601C218.591 57.601 218.608 57.5563 218.624 57.5117C219.021 56.9989 219.402 56.5309 219.843 56.0349C220.346 55.5111 220.877 55.0488 221.47 54.5587C222.09 54.13 222.71 53.7012 223.33 53.2725C223.33 53.2725 223.47 53.1724 223.531 53.1446L223.811 52.9441L224.073 52.7883C224.073 52.7883 224.257 52.7049 224.336 52.6325L224.537 52.5044C227.626 50.6623 230.09 48.9921 232.314 47.2825C233.403 46.4193 234.471 45.3439 235.718 43.9284C236.601 42.9365 237.675 41.7105 238.759 40.5906L239.011 40.3288L239.245 40.1116L239.228 40.1561L239.262 40.0669C241.543 37.6654 243.561 35.8271 245.556 34.1841C247.02 33.0034 248.528 31.8394 250.076 30.843C250.478 30.5869 250.908 30.3923 251.338 30.1977C251.584 30.0865 251.874 29.9921 252.12 29.8809C252.349 29.8143 252.561 29.7924 252.728 29.7536C253.152 29.7097 253.56 29.7103 253.984 29.6663C254.375 29.7116 254.782 29.7122 255.173 29.7575C256.478 29.9438 257.661 30.1856 258.782 30.4553C260.216 30.8427 261.454 31.2076 262.615 31.6448C263.328 31.9138 263.964 32.2552 264.644 32.6135C265.101 32.8877 265.559 33.162 265.999 33.4808C266.557 33.8946 267.142 34.3698 267.699 34.7837C268.167 35.1639 268.574 35.572 269.042 35.9523L269.232 36.1256C270.145 37.0814 270.97 38.0035 271.661 38.8752C272.524 39.9648 273.443 41.1773 274.473 42.6355C274.974 43.3339 275.475 44.0323 275.915 44.7585C276.271 45.3004 276.628 45.8423 277.001 46.3396C277.775 47.3956 278.549 48.4516 279.34 49.463L279.685 49.8988L279.986 50.3178C280.331 50.7537 280.704 51.251 281.049 51.6868C281.45 52.2455 281.834 52.8487 282.263 53.4689C282.575 53.994 282.842 54.5023 283.154 55.0274C283.365 55.4128 283.56 55.8429 283.727 56.2115L283.838 56.4571C284.033 56.8872 284.166 57.3449 284.316 57.7581C284.393 58.0931 284.454 58.4727 284.532 58.8077C284.448 59.0308 284.364 59.254 284.279 59.4771C283.524 61.0775 282.767 62.6777 281.894 64.1831C281.677 64.3557 281.442 64.573 281.224 64.7456C281.067 64.8905 280.972 65.0076 280.816 65.1524C280.503 65.4421 280.218 65.7932 279.905 66.0829C279.418 66.562 278.96 67.1026 278.474 67.5817C277.451 68.6739 276.338 69.7323 275.271 70.8077C273.426 72.4565 271.521 74.1331 269.487 75.6087C268.526 76.2656 267.448 76.8276 266.387 77.3449L266.431 77.3616C264.281 78.3347 262.097 79.3971 259.903 80.3534C261.689 79.8038 263.415 79.282 265.185 78.7771C266.223 78.4551 267.245 78.1778 268.3 77.8112C268.942 77.5946 269.557 77.3166 270.171 77.0385C270.908 76.7049 271.662 76.3265 272.388 75.8868C273.036 75.5196 273.657 75.0909 274.321 74.679C274.942 74.2503 275.623 73.7938 276.243 73.3651C277.439 72.4909 278.579 71.4939 279.674 70.4801C280.457 69.7558 281.15 68.998 281.905 68.2123C282.251 67.8334 282.626 67.5159 282.973 67.137C283.129 66.9922 283.285 66.8473 283.397 66.6857C283.789 66.3236 284.18 65.9615 284.409 65.4875C284.544 65.1306 284.678 64.7737 284.813 64.4167C284.863 64.2829 284.914 64.149 284.947 64.0597C285.199 67.3136 285.501 70.4337 286.623 73.4045C286.924 74.2309 287.302 74.9848 287.741 75.711C288.153 76.3758 288.61 77.0574 289.273 77.8676C290.198 78.9295 291.245 79.9356 292.22 80.8636L292.599 81.2103C293.296 81.9313 293.975 82.6969 294.683 83.5239C295 83.8984 295.256 84.3006 295.512 84.7029C295.785 85.4679 296.012 86.2159 296.24 86.9641C296.545 88.0473 296.744 89.1414 296.938 89.9788C297.126 90.9669 297.315 91.955 297.458 92.9263C297.535 93.6686 297.618 94.2603 297.639 94.8798C297.65 95.3932 297.615 95.8898 297.52 96.4142C297.429 97.1954 297.283 97.8536 297.137 98.5119L297.069 98.6904C296.89 99.4379 296.621 100.152 296.335 100.91C296.217 101.223 296.083 101.58 295.92 101.875C295.646 102.332 295.372 102.789 294.975 103.302C294.483 103.932 294.024 104.473 293.583 104.968C293.096 105.448 292.61 105.927 292.079 106.389C291.425 106.907 290.727 107.408 290.001 107.848C289.213 108.315 288.442 108.738 287.671 109.161C287.102 109.456 286.577 109.768 285.99 110.107C284.878 110.758 283.812 111.426 282.745 112.094L281.879 112.634C280.706 113.313 279.689 113.847 278.628 114.364L278.583 114.347L278.444 114.447C278.444 114.447 278.058 114.659 277.829 114.726C275.07 115.826 272.742 116.732 270.347 117.409C270.347 117.409 270.135 117.431 270.028 117.442C269.571 117.575 269.085 117.647 268.599 117.719C268.069 117.773 267.494 117.812 266.964 117.867C266.45 117.877 265.937 117.887 265.44 117.853C264.749 117.796 264.057 117.739 263.365 117.682C262.779 117.614 262.237 117.563 261.652 117.495C261.004 117.455 260.268 117.381 259.587 117.43C258.437 117.507 257.354 117.812 256.326 118.24C256.142 118.323 255.958 118.407 255.773 118.49C254.74 119.069 253.628 119.72 252.327 120.605L251.986 120.833C251.042 121.446 250.142 122.075 249.154 122.67C246.623 124.112 244.082 125.447 241.608 126.604L241.563 126.587C241.563 126.587 241.362 126.715 241.284 126.787C241.161 126.843 240.976 126.926 240.809 126.965C240.211 127.198 239.631 127.387 239.033 127.62L238.743 127.715C238.743 127.715 238.285 127.848 238.011 127.898L237.464 127.997L236.917 128.097C236.326 128.18 235.689 128.246 235.098 128.329C234.461 128.394 233.797 128.399 233.161 128.465L233.027 128.414C232.541 128.486 232.072 128.513 231.576 128.479L231.018 128.472L230.655 128.489C230.203 128.471 229.734 128.498 229.293 128.587L228.489 128.692L228.322 128.73L228.048 128.78C228.048 128.78 227.775 128.83 227.607 128.869C227.289 128.902 226.91 128.962 226.53 129.023L226.743 128.594ZM302.368 97.0694C302.368 97.0694 302.457 97.5104 302.523 97.7393C302.529 97.996 302.551 98.2082 302.556 98.4649C302.538 98.9169 302.521 99.3689 302.459 99.8041C302.34 100.524 302.222 101.243 302.059 101.946C301.458 104.217 300.83 106.426 300.006 108.612C299.771 109.237 299.474 109.889 299.149 110.48C298.825 111.071 298.438 111.69 298.024 112.247C297.532 112.877 296.979 113.535 296.302 114.248C295.313 115.251 294.251 116.175 293.162 117.039C291.061 118.693 289.183 120.023 287.39 121.131C285.692 122.122 283.949 123.095 282.206 124.069C280.201 125.199 278.431 126.111 276.71 126.889C272.768 128.563 269.708 129.652 266.821 130.551C265.174 131 263.588 131.422 261.992 131.737L261.763 131.804C260.149 132.164 258.491 132.507 256.867 132.761L256.275 132.844L256.186 132.81L256.169 132.855L256.124 132.838C254.684 133.009 253.367 133.124 252.128 133.167C250.8 133.176 249.745 133.135 248.707 133.049C247.519 132.958 246.347 132.822 245.175 132.687L245.264 132.72C245.264 132.72 245.175 132.687 245.13 132.67L244.784 132.641L244.154 132.557C242.413 132.308 240.628 132.043 239.294 131.795C237.81 131.542 236.315 131.182 234.703 130.728L234.346 130.593C233.119 130.334 231.88 129.969 230.592 129.739L230.279 129.621C229.738 129.57 229.214 129.474 228.734 129.395C228.823 129.429 228.946 129.373 229.052 129.362C229.415 129.346 229.777 129.33 230.14 129.314C231.256 129.327 232.462 129.373 233.667 129.42C234.376 129.432 235.023 129.472 235.732 129.485C236.636 129.52 237.529 129.449 238.193 129.444C238.98 129.384 239.739 129.262 240.605 129.13C241.849 128.937 243.072 128.531 244.234 128.154L244.357 128.098C245.641 127.665 246.897 127.17 247.925 126.742C248.293 126.575 248.662 126.409 249.075 126.259C249.874 125.897 250.689 125.491 251.399 125.096C252.371 124.545 253.359 123.95 254.304 123.337L254.907 122.953C255.633 122.513 256.605 121.963 257.649 121.49C258.018 121.323 258.37 121.201 258.766 121.095C258.934 121.057 259.163 120.99 259.375 120.968C259.587 120.946 259.799 120.924 260.056 120.919C261.11 120.96 262.148 121.045 262.929 121.136C263.861 121.232 264.927 121.379 265.982 121.42C266.54 121.426 267.098 121.433 267.656 121.439C268.186 121.384 268.761 121.346 269.291 121.291C269.866 121.253 270.43 121.109 271.055 120.937C271.664 120.81 272.245 120.621 272.825 120.432C273.97 120.099 275.059 119.643 276.148 119.187L276.394 119.076C277.36 118.676 278.264 118.303 279.247 117.859C279.554 117.72 279.817 117.564 280.107 117.469C281.353 116.869 282.448 116.262 283.364 115.588C284.124 115.06 284.839 114.514 285.599 113.985L286.454 113.339C287.387 112.62 288.409 111.936 289.65 111.078L289.912 110.923C290.856 110.31 291.817 109.653 292.689 108.963C294.79 107.309 296.595 105.492 297.966 103.614C299.275 101.763 300.149 99.4431 300.521 96.832C300.691 95.5711 300.682 94.243 300.416 92.9199C300.377 92.7524 300.355 92.5403 300.316 92.3728C300.444 92.5739 300.573 92.7751 300.639 93.004C301.006 93.652 301.285 94.2662 301.535 94.8191C301.852 95.6009 302.185 96.3381 302.413 97.0862L302.368 97.0694Z" fill="#EBA74F"/>
</svg>
